<svg width="19" height="13" viewBox="0 0 19 13" fill="none" xmlns="http://www.w3.org/2000/svg">
<path fill-rule="evenodd" clip-rule="evenodd" d="M2.41534 0H15.5847C16.9073 0 18 1.05743 18 2.33749V10.3517C18 11.6874 16.9073 12.7449 15.5847 12.7449H5.92332C5.68849 12.7449 5.4153 12.8562 5.1664 12.9577C5.11054 12.9805 5.0559 13.0027 5.00319 13.0231L0.690096 14.971C0.345048 15.0824 0 14.8597 0 14.5258V2.33749C0 1.05743 1.09265 0 2.41534 0ZM15.5847 0.946126H2.41534C1.61022 0.946126 0.977636 1.55832 0.977636 2.33749V13.8023L4.60064 12.1883C5.0607 11.9657 5.40575 11.7987 5.92332 11.7987H15.5847C16.3898 11.7987 17.0224 11.1309 17.0224 10.3517V2.33749C17.0224 1.55832 16.3898 0.946126 15.5847 0.946126ZM5 5C5.57692 5 6 5.46154 6 6C6 6.57692 5.57692 7 5 7C4.46154 7 4 6.57692 4 6C4 5.46154 4.46154 5 5 5ZM5 5.65385C4.80769 5.65385 4.65385 5.80769 4.65385 6C4.65385 6.19231 4.80769 6.34615 5 6.34615C5.19231 6.34615 5.34615 6.19231 5.34615 6C5.34615 5.80769 5.19231 5.65385 5 5.65385ZM10 6C10 5.46154 9.53846 5 9 5C8.42308 5 8 5.46154 8 6C8 6.57692 8.42308 7 9 7C9.53846 7 10 6.57692 10 6ZM8.65385 6C8.65385 5.80769 8.80769 5.65385 9 5.65385C9.19231 5.65385 9.34615 5.80769 9.34615 6C9.34615 6.19231 9.19231 6.34615 9 6.34615C8.80769 6.34615 8.65385 6.19231 8.65385 6ZM13 5C13.5385 5 14 5.46154 14 6C14 6.57692 13.5385 7 13 7C12.4615 7 12 6.57692 12 6C12 5.46154 12.4615 5 13 5ZM13 5.65385C12.8077 5.65385 12.6538 5.80769 12.6538 6C12.6538 6.19231 12.8077 6.34615 13 6.34615C13.1923 6.34615 13.3462 6.19231 13.3462 6C13.3462 5.80769 13.1923 5.65385 13 5.65385Z" fill="black"/>
<path d="M5.1664 12.9577L5.03376 12.6323H5.03376L5.1664 12.9577ZM5.00319 13.0231L4.87634 12.6954L4.86735 12.6989L4.85856 12.7029L5.00319 13.0231ZM0.690096 14.971L0.797977 15.3055L0.81675 15.2994L0.834727 15.2913L0.690096 14.971ZM0.977636 13.8023H0.626245V14.3435L1.12063 14.1233L0.977636 13.8023ZM4.60064 12.1883L4.7437 12.5095L4.75369 12.5046L4.60064 12.1883ZM15.5847 -0.351391H2.41534V0.351391H15.5847V-0.351391ZM18.3514 2.33749C18.3514 0.852604 17.0905 -0.351391 15.5847 -0.351391V0.351391C16.7242 0.351391 17.6486 1.26226 17.6486 2.33749H18.3514ZM18.3514 10.3517V2.33749H17.6486V10.3517H18.3514ZM15.5847 13.0963C17.0959 13.0963 18.3514 11.8869 18.3514 10.3517H17.6486C17.6486 11.4879 16.7188 12.3935 15.5847 12.3935V13.0963ZM5.92332 13.0963H15.5847V12.3935H5.92332V13.0963ZM5.29905 13.2831C5.56893 13.1731 5.77194 13.0963 5.92332 13.0963V12.3935C5.60504 12.3935 5.26166 12.5394 5.03376 12.6323L5.29905 13.2831ZM5.13005 13.3508C5.18618 13.3291 5.24377 13.3056 5.29905 13.2831L5.03376 12.6323C4.9773 12.6553 4.92562 12.6764 4.87634 12.6954L5.13005 13.3508ZM0.834727 15.2913L5.14783 13.3434L4.85856 12.7029L0.545465 14.6508L0.834727 15.2913ZM-0.351391 14.5258C-0.351391 15.1421 0.269602 15.4759 0.797977 15.3055L0.582215 14.6366C0.508934 14.6603 0.446064 14.6459 0.406158 14.6201C0.367958 14.5955 0.351391 14.563 0.351391 14.5258H-0.351391ZM-0.351391 2.33749V14.5258H0.351391V2.33749H-0.351391ZM2.41534 -0.351391C0.909524 -0.351391 -0.351391 0.852604 -0.351391 2.33749H0.351391C0.351391 1.26226 1.27578 0.351391 2.41534 0.351391V-0.351391ZM2.41534 1.29752H15.5847V0.594735H2.41534V1.29752ZM1.32903 2.33749C1.32903 1.76315 1.79335 1.29752 2.41534 1.29752V0.594735C1.4271 0.594735 0.626245 1.35349 0.626245 2.33749H1.32903ZM1.32903 13.8023V2.33749H0.626245V13.8023H1.32903ZM4.45765 11.8673L0.834645 13.4813L1.12063 14.1233L4.74363 12.5093L4.45765 11.8673ZM5.92332 11.4474C5.31611 11.4474 4.90474 11.6508 4.44758 11.872L4.75369 12.5046C5.21667 12.2806 5.49539 12.1501 5.92332 12.1501V11.4474ZM15.5847 11.4474H5.92332V12.1501H15.5847V11.4474ZM16.671 10.3517C16.671 10.9439 16.1887 11.4474 15.5847 11.4474V12.1501C16.5909 12.1501 17.3738 11.3179 17.3738 10.3517H16.671ZM16.671 2.33749V10.3517H17.3738V2.33749H16.671ZM15.5847 1.29752C16.2066 1.29752 16.671 1.76316 16.671 2.33749H17.3738C17.3738 1.35349 16.5729 0.594735 15.5847 0.594735V1.29752ZM6.35139 6C6.35139 5.27636 5.77977 4.64861 5 4.64861V5.35139C5.37408 5.35139 5.64861 5.64671 5.64861 6H6.35139ZM5 7.35139C5.77099 7.35139 6.35139 6.77099 6.35139 6H5.64861C5.64861 6.38286 5.38286 6.64861 5 6.64861V7.35139ZM3.64861 6C3.64861 6.77977 4.27636 7.35139 5 7.35139V6.64861C4.64671 6.64861 4.35139 6.37408 4.35139 6H3.64861ZM5 4.64861C4.26747 4.64861 3.64861 5.26747 3.64861 6H4.35139C4.35139 5.65561 4.65561 5.35139 5 5.35139V4.64861ZM5.00524 6C5.00524 5.99916 5.00533 5.99974 5.00483 6.00093C5.00442 6.00191 5.00387 6.00269 5.00328 6.00328C5.00269 6.00387 5.00191 6.00442 5.00093 6.00483C4.99974 6.00533 4.99916 6.00524 5 6.00524V5.30246C4.61362 5.30246 4.30246 5.61362 4.30246 6H5.00524ZM5 5.99476C4.99916 5.99476 4.99974 5.99467 5.00093 5.99517C5.00191 5.99558 5.00269 5.99613 5.00328 5.99672C5.00387 5.99731 5.00442 5.99809 5.00483 5.99907C5.00533 6.00026 5.00524 6.00084 5.00524 6H4.30246C4.30246 6.38638 4.61362 6.69754 5 6.69754V5.99476ZM4.99476 6C4.99476 6.00084 4.99467 6.00026 4.99517 5.99907C4.99558 5.99809 4.99613 5.99731 4.99672 5.99672C4.99731 5.99613 4.99809 5.99558 4.99907 5.99517C5.00026 5.99467 5.00084 5.99476 5 5.99476V6.69754C5.38638 6.69754 5.69754 6.38638 5.69754 6H4.99476ZM5 6.00524C5.00084 6.00524 5.00026 6.00533 4.99907 6.00483C4.99809 6.00442 4.99731 6.00387 4.99672 6.00328C4.99613 6.00269 4.99558 6.00191 4.99517 6.00093C4.99467 5.99974 4.99476 5.99916 4.99476 6H5.69754C5.69754 5.61362 5.38638 5.30246 5 5.30246V6.00524ZM9 5.35139C9.34439 5.35139 9.64861 5.65561 9.64861 6H10.3514C10.3514 5.26747 9.73253 4.64861 9 4.64861V5.35139ZM8.35139 6C8.35139 5.64671 8.62592 5.35139 9 5.35139V4.64861C8.22023 4.64861 7.64861 5.27636 7.64861 6H8.35139ZM9 6.64861C8.61714 6.64861 8.35139 6.38286 8.35139 6H7.64861C7.64861 6.77099 8.22901 7.35139 9 7.35139V6.64861ZM9.64861 6C9.64861 6.37408 9.35329 6.64861 9 6.64861V7.35139C9.72364 7.35139 10.3514 6.77977 10.3514 6H9.64861ZM9 5.30246C8.61363 5.30246 8.30245 5.61362 8.30245 6H9.00524C9.00524 5.99916 9.00533 5.99974 9.00483 6.00093C9.00442 6.00191 9.00387 6.00269 9.00328 6.00328C9.00269 6.00387 9.00191 6.00442 9.00093 6.00483C8.99974 6.00533 8.99916 6.00524 9 6.00524V5.30246ZM9.69755 6C9.69755 5.61362 9.38637 5.30246 9 5.30246V6.00524C9.00084 6.00524 9.00026 6.00533 8.99907 6.00483C8.99809 6.00442 8.99731 6.00387 8.99672 6.00328C8.99613 6.00269 8.99558 6.00191 8.99517 6.00093C8.99467 5.99974 8.99476 5.99916 8.99476 6H9.69755ZM9 6.69754C9.38637 6.69754 9.69755 6.38638 9.69755 6H8.99476C8.99476 6.00084 8.99467 6.00026 8.99517 5.99907C8.99558 5.99809 8.99613 5.99731 8.99672 5.99672C8.99731 5.99613 8.99809 5.99558 8.99907 5.99517C9.00026 5.99467 9.00084 5.99476 9 5.99476V6.69754ZM8.30245 6C8.30245 6.38638 8.61363 6.69754 9 6.69754V5.99476C8.99916 5.99476 8.99974 5.99467 9.00093 5.99517C9.00191 5.99558 9.00269 5.99613 9.00328 5.99672C9.00387 5.99731 9.00442 5.99809 9.00483 5.99907C9.00533 6.00026 9.00524 6.00084 9.00524 6H8.30245ZM14.3514 6C14.3514 5.26747 13.7325 4.64861 13 4.64861V5.35139C13.3444 5.35139 13.6486 5.65561 13.6486 6H14.3514ZM13 7.35139C13.7236 7.35139 14.3514 6.77977 14.3514 6H13.6486C13.6486 6.37408 13.3533 6.64861 13 6.64861V7.35139ZM11.6486 6C11.6486 6.77977 12.2764 7.35139 13 7.35139V6.64861C12.6467 6.64861 12.3514 6.37408 12.3514 6H11.6486ZM13 4.64861C12.2675 4.64861 11.6486 5.26747 11.6486 6H12.3514C12.3514 5.65561 12.6556 5.35139 13 5.35139V4.64861ZM13.0052 6C13.0052 5.99916 13.0053 5.99974 13.0048 6.00093C13.0044 6.00191 13.0039 6.00269 13.0033 6.00328C13.0027 6.00387 13.0019 6.00442 13.0009 6.00483C12.9997 6.00533 12.9992 6.00524 13 6.00524V5.30246C12.6136 5.30246 12.3025 5.61362 12.3025 6H13.0052ZM13 5.99476C12.9992 5.99476 12.9997 5.99467 13.0009 5.99517C13.0019 5.99558 13.0027 5.99613 13.0033 5.99672C13.0039 5.99731 13.0044 5.99809 13.0048 5.99907C13.0053 6.00026 13.0052 6.00084 13.0052 6H12.3025C12.3025 6.38638 12.6136 6.69754 13 6.69754V5.99476ZM12.9948 6C12.9948 6.00084 12.9947 6.00026 12.9952 5.99907C12.9956 5.99809 12.9961 5.99731 12.9967 5.99672C12.9973 5.99613 12.9981 5.99558 12.9991 5.99517C13.0003 5.99467 13.0008 5.99476 13 5.99476V6.69754C13.3864 6.69754 13.6975 6.38638 13.6975 6H12.9948ZM13 6.00524C13.0008 6.00524 13.0003 6.00533 12.9991 6.00483C12.9981 6.00442 12.9973 6.00387 12.9967 6.00328C12.9961 6.00269 12.9956 6.00191 12.9952 6.00093C12.9947 5.99974 12.9948 5.99916 12.9948 6H13.6975C13.6975 5.61362 13.3864 5.30246 13 5.30246V6.00524Z" fill="black"/>
</svg>
