<svg width="18" height="14" viewBox="0 0 18 14" fill="none" xmlns="http://www.w3.org/2000/svg">
<path fill-rule="evenodd" clip-rule="evenodd" d="M11.4225 3.10793C11.4123 3.0945 11.4015 3.08144 11.39 3.06879L9.19863 0.649229C8.82231 0.233724 8.28402 -0.00259485 7.71986 2.14966e-05H0.582192C0.260656 2.14966e-05 0 0.257699 0 0.57556V3.45325C0 3.49267 0.004009 3.53117 0.0116459 3.56836C0.004009 3.60555 0 3.64405 0 3.68347V14.0063C0 15.1074 0.902913 16 2.01671 16H14.9833C16.0971 16 17 15.1074 17 14.0063V5.1016C17 4.00053 16.0971 3.10793 14.9833 3.10793H11.4225ZM1.16438 2.87772H9.64342L8.32069 1.41585C8.1671 1.24784 7.94893 1.1517 7.71986 1.1511H1.16438V2.87772ZM1.16438 4.25901V14.0063C1.16438 14.4717 1.54598 14.8489 2.01671 14.8489H14.9833C15.454 14.8489 15.8356 14.4717 15.8356 14.0063V5.1016C15.8356 4.63625 15.454 4.25901 14.9833 4.25901H1.16438Z" fill="black"/>
<path d="M11.4225 3.10793L11.1426 3.32039L11.2481 3.45932H11.4225V3.10793ZM11.39 3.06879L11.1296 3.30468L11.1299 3.30501L11.39 3.06879ZM9.19863 0.649229L9.45908 0.413344L9.45908 0.413342L9.19863 0.649229ZM7.71986 2.14966e-05V0.351416L7.72149 0.351409L7.71986 2.14966e-05ZM0.0116459 3.56836L0.355855 3.63904L0.370368 3.56836L0.355855 3.49768L0.0116459 3.56836ZM9.64342 2.87772V3.22911H10.4353L9.90399 2.64195L9.64342 2.87772ZM1.16438 2.87772H0.812993V3.22911H1.16438V2.87772ZM8.32069 1.41585L8.58125 1.18008L8.58004 1.17876L8.32069 1.41585ZM7.71986 1.1511L7.72079 0.799708H7.71986V1.1511ZM1.16438 1.1511V0.799708H0.812993V1.1511H1.16438ZM1.16438 4.25901V3.90762H0.812993V4.25901H1.16438ZM11.7024 2.89547C11.686 2.87386 11.6686 2.85287 11.6501 2.83258L11.1299 3.30501C11.1344 3.31002 11.1387 3.31515 11.1426 3.32039L11.7024 2.89547ZM11.6504 2.83291L9.45908 0.413344L8.93818 0.885115L11.1296 3.30468L11.6504 2.83291ZM9.45908 0.413342C9.01527 -0.0766704 8.38146 -0.354441 7.71823 -0.351366L7.72149 0.351409C8.18658 0.349252 8.62934 0.544118 8.93818 0.885117L9.45908 0.413342ZM7.71986 -0.351369H0.582192V0.351412H7.71986V-0.351369ZM0.582192 -0.351369C0.0704068 -0.351369 -0.351391 0.0598345 -0.351391 0.57556H0.351391C0.351391 0.455563 0.450905 0.351412 0.582192 0.351412V-0.351369ZM-0.351391 0.57556V3.45325H0.351391V0.57556H-0.351391ZM-0.351391 3.45325C-0.351391 3.51656 -0.344947 3.57873 -0.332563 3.63904L0.355855 3.49768C0.352965 3.48361 0.351391 3.46879 0.351391 3.45325H-0.351391ZM-0.332564 3.49768C-0.344947 3.55799 -0.351391 3.62016 -0.351391 3.68347H0.351391C0.351391 3.66794 0.352965 3.65312 0.355855 3.63904L-0.332564 3.49768ZM-0.351391 3.68347V14.0063H0.351391V3.68347H-0.351391ZM-0.351391 14.0063C-0.351391 15.3053 0.712664 16.3514 2.01671 16.3514V15.6486C1.09316 15.6486 0.351391 14.9095 0.351391 14.0063H-0.351391ZM2.01671 16.3514H14.9833V15.6486H2.01671V16.3514ZM14.9833 16.3514C16.2873 16.3514 17.3514 15.3053 17.3514 14.0063H16.6486C16.6486 14.9095 15.9068 15.6486 14.9833 15.6486V16.3514ZM17.3514 14.0063V5.1016H16.6486V14.0063H17.3514ZM17.3514 5.1016C17.3514 3.80266 16.2873 2.75654 14.9833 2.75654V3.45932C15.9068 3.45932 16.6486 4.19839 16.6486 5.1016H17.3514ZM14.9833 2.75654H11.4225V3.45932H14.9833V2.75654ZM9.64342 2.52632H1.16438V3.22911H9.64342V2.52632ZM8.06013 1.65161L9.38286 3.11348L9.90399 2.64195L8.58125 1.18008L8.06013 1.65161ZM7.71894 1.50249C7.85037 1.50284 7.97458 1.55803 8.06133 1.65294L8.58004 1.17876C8.35962 0.937645 8.04749 0.800572 7.72079 0.799709L7.71894 1.50249ZM1.16438 1.50249H7.71986V0.799708H1.16438V1.50249ZM1.51577 2.87772V1.1511H0.812993V2.87772H1.51577ZM1.51577 14.0063V4.25901H0.812993V14.0063H1.51577ZM2.01671 14.4975C1.73623 14.4975 1.51577 14.2738 1.51577 14.0063H0.812993C0.812993 14.6695 1.35574 15.2003 2.01671 15.2003V14.4975ZM14.9833 14.4975H2.01671V15.2003H14.9833V14.4975ZM15.4842 14.0063C15.4842 14.2738 15.2638 14.4975 14.9833 14.4975V15.2003C15.6443 15.2003 16.187 14.6695 16.187 14.0063H15.4842ZM15.4842 5.1016V14.0063H16.187V5.1016H15.4842ZM14.9833 4.6104C15.2638 4.6104 15.4842 4.83411 15.4842 5.1016H16.187C16.187 4.43838 15.6443 3.90762 14.9833 3.90762V4.6104ZM1.16438 4.6104H14.9833V3.90762H1.16438V4.6104Z" fill="black"/>
</svg>
