<svg width="18" height="15" viewBox="0 0 18 15" fill="none" xmlns="http://www.w3.org/2000/svg">
<path fill-rule="evenodd" clip-rule="evenodd" d="M1.39427 1.53456C2.32435 0.508789 3.55696 0 4.78961 0C6.02226 0 7.25486 0.508794 8.18497 1.53456L8.99956 2.43099L9.81416 1.54216C11.6744 -0.509416 14.7447 -0.509373 16.6049 1.54216C18.465 3.5937 18.465 6.88235 16.6049 8.93389C15.4031 10.2593 14.2008 11.5854 12.9986 12.9116C11.8312 14.1992 10.6639 15.4869 9.49698 16.7738C9.36635 16.9183 9.18529 17 8.99596 17C8.80663 17 8.62556 16.9183 8.49494 16.7738L1.39427 8.9263C-0.463556 6.87343 -0.465955 3.58607 1.39427 1.53456ZM7.19015 2.54494C6.51638 1.80187 5.65007 1.42821 4.78961 1.42821C3.92914 1.42821 3.07003 1.80187 2.39628 2.54494C1.04875 4.03104 1.04947 6.43529 2.39628 7.92352L8.99956 15.2089C10.0972 13.9984 11.195 12.7887 12.2929 11.5791C13.3963 10.3634 14.4997 9.14772 15.6028 7.9311C16.9504 6.44497 16.9504 4.03867 15.6028 2.55254C14.2553 1.0664 12.1565 1.06636 10.809 2.55254L9.50417 3.99594C9.37355 4.14036 9.19249 4.22209 9.00317 4.22209C8.81384 4.22209 8.63278 4.14036 8.50216 3.99594L7.19015 2.54494Z" fill="black"/>
</svg>
