<svg width="21" height="20" viewBox="0 0 21 20" fill="none" xmlns="http://www.w3.org/2000/svg">
<path fill-rule="evenodd" clip-rule="evenodd" d="M9.98959 5.98297e-05C9.96786 0.000299006 9.94615 0.00160238 9.92455 0.00396527C9.77536 0.0214546 9.63646 0.0888934 9.53039 0.195334L0.203376 9.52942C0.0298992 9.69709 -0.039462 9.94551 0.0220363 10.1789C0.0835345 10.4123 0.266285 10.5941 0.499823 10.6544C0.73336 10.7147 0.981202 10.6439 1.14778 10.4693L9.9974 1.61302L18.8522 10.4693C19.0188 10.6439 19.2666 10.7147 19.5002 10.6544C19.7337 10.5942 19.9165 10.4123 19.978 10.1789C20.0395 9.94551 19.9701 9.69709 19.7966 9.52942L10.4696 0.195334C10.3425 0.0680774 10.1694 -0.00234917 9.98959 5.98297e-05ZM3.33059 10.6555C2.96276 10.6598 2.66807 10.9617 2.67237 11.3298V17.9978C2.67237 19.094 3.57765 20 4.67306 20H15.3269C16.4223 20 17.3289 19.094 17.3289 17.9978V11.3298C17.3289 10.9614 17.0304 10.6627 16.6622 10.6627C16.294 10.6627 15.9956 10.9614 15.9956 11.3298V17.9978C15.9956 18.3785 15.7074 18.6669 15.3269 18.6669H13.3314V13.9973C13.33 13.6292 13.0306 13.332 12.6628 13.3334H7.33848C7.16162 13.3323 6.99161 13.4017 6.86594 13.5263C6.74027 13.6508 6.66925 13.8203 6.66855 13.9973V18.6669H4.67306C4.29255 18.6669 4.00443 18.3785 4.00443 17.9978V11.3298C4.00652 11.1504 3.9362 10.9776 3.80938 10.8507C3.68255 10.7238 3.50994 10.6534 3.33059 10.6555ZM11.9994 14.6664H8.00191V18.6669H11.9994V14.6664Z" fill="black"/>
<path d="M9.92455 0.00396527L9.88634 -0.345353L9.88363 -0.345036L9.92455 0.00396527ZM9.98959 5.98297e-05L9.99346 0.35143L9.9943 0.351419L9.98959 5.98297e-05ZM9.53039 0.195334L9.77896 0.443711L9.7793 0.443366L9.53039 0.195334ZM0.203376 9.52942L0.44762 9.78212L0.451941 9.7778L0.203376 9.52942ZM0.0220363 10.1789L0.361828 10.0893L0.0220363 10.1789ZM1.14778 10.4693L0.899155 10.2209L0.893593 10.2267L1.14778 10.4693ZM9.9974 1.61302L10.2459 1.36457L9.99732 1.11596L9.74883 1.36464L9.9974 1.61302ZM18.8522 10.4693L19.1065 10.2267L19.1007 10.2209L18.8522 10.4693ZM19.7966 9.52942L19.548 9.77783L19.5524 9.78209L19.7966 9.52942ZM10.4696 0.195334L10.221 0.443662L10.221 0.44371L10.4696 0.195334ZM2.67237 11.3298H3.02378L3.02374 11.3257L2.67237 11.3298ZM3.33059 10.6555L3.32648 10.3041H3.32646L3.33059 10.6555ZM13.3314 18.6669H12.9801V19.0183H13.3314V18.6669ZM13.3314 13.9973H13.6828L13.6828 13.9959L13.3314 13.9973ZM12.6628 13.3334V13.6847L12.6642 13.6847L12.6628 13.3334ZM7.33848 13.3334L7.33645 13.6847H7.33848V13.3334ZM6.66855 13.9973L6.31716 13.9959V13.9973H6.66855ZM6.66855 18.6669V19.0183H7.01994V18.6669H6.66855ZM4.00443 11.3298L3.65304 11.3257V11.3298H4.00443ZM8.00191 14.6664V14.315H7.65052V14.6664H8.00191ZM11.9994 14.6664H12.3508V14.315H11.9994V14.6664ZM8.00191 18.6669H7.65052V19.0183H8.00191V18.6669ZM11.9994 18.6669V19.0183H12.3508V18.6669H11.9994ZM9.96275 0.353273C9.97295 0.352158 9.9832 0.351542 9.99346 0.351429L9.98572 -0.35131C9.95252 -0.350944 9.91935 -0.348953 9.88634 -0.345343L9.96275 0.353273ZM9.7793 0.443366C9.82943 0.393058 9.89504 0.361222 9.96546 0.352966L9.88363 -0.345036C9.65568 -0.318312 9.44349 -0.215272 9.28149 -0.0526991L9.7793 0.443366ZM0.451941 9.7778L9.77896 0.44371L9.28183 -0.0530432L-0.0451894 9.28104L0.451941 9.7778ZM0.361828 10.0893C0.332717 9.97888 0.365576 9.86135 0.447583 9.78208L-0.0408318 9.27676C-0.305778 9.53284 -0.411641 9.91214 -0.317755 10.2684L0.361828 10.0893ZM0.587609 10.3142C0.477368 10.2857 0.390933 10.1998 0.361828 10.0893L-0.317755 10.2684C-0.223864 10.6247 0.0552022 10.9026 0.412037 10.9946L0.587609 10.3142ZM0.893593 10.2267C0.814865 10.3092 0.697831 10.3426 0.587609 10.3142L0.412037 10.9946C0.76889 11.0867 1.14754 10.9785 1.40198 10.712L0.893593 10.2267ZM9.74883 1.36464L0.89922 10.221L1.39635 10.7177L10.246 1.8614L9.74883 1.36464ZM19.1007 10.2209L10.2459 1.36457L9.7489 1.86147L18.6037 10.7178L19.1007 10.2209ZM19.4124 10.3142C19.3022 10.3426 19.1851 10.3092 19.1064 10.2267L18.598 10.7119C18.8524 10.9785 19.2311 11.0867 19.588 10.9947L19.4124 10.3142ZM19.6382 10.0894C19.6091 10.1998 19.5226 10.2857 19.4124 10.3142L19.588 10.9947C19.9448 10.9026 20.2239 10.6247 20.3178 10.2684L19.6382 10.0894ZM19.5524 9.78209C19.6344 9.86135 19.6673 9.97888 19.6382 10.0894L20.3178 10.2684C20.4116 9.91214 20.3058 9.53283 20.0408 9.27675L19.5524 9.78209ZM10.221 0.44371L19.5481 9.7778L20.0452 9.28104L10.7182 -0.0530432L10.221 0.44371ZM9.9943 0.351419C10.0791 0.350282 10.1609 0.383519 10.221 0.443662L10.7182 -0.052995C10.5241 -0.247364 10.2596 -0.354981 9.98488 -0.3513L9.9943 0.351419ZM3.02374 11.3257C3.0217 11.1514 3.16119 11.0089 3.33472 11.0069L3.32646 10.3041C2.76433 10.3107 2.31444 10.772 2.321 11.3339L3.02374 11.3257ZM3.02376 17.9978V11.3298H2.32098V17.9978H3.02376ZM4.67306 19.6486C3.77197 19.6486 3.02376 18.9002 3.02376 17.9978H2.32098C2.32098 19.2878 3.38333 20.3514 4.67306 20.3514V19.6486ZM15.3269 19.6486H4.67306V20.3514H15.3269V19.6486ZM16.9775 17.9978C16.9775 18.8999 16.2283 19.6486 15.3269 19.6486V20.3514C16.6164 20.3514 17.6803 19.2881 17.6803 17.9978H16.9775ZM16.9775 11.3298V17.9978H17.6803V11.3298H16.9775ZM16.6622 11.0141C16.8361 11.0141 16.9775 11.1552 16.9775 11.3298H17.6803C17.6803 10.7676 17.2248 10.3113 16.6622 10.3113V11.0141ZM16.347 11.3298C16.347 11.1552 16.4884 11.0141 16.6622 11.0141V10.3113C16.0997 10.3113 15.6442 10.7676 15.6442 11.3298H16.347ZM16.347 17.9978V11.3298H15.6442V17.9978H16.347ZM15.3269 19.0183C15.9018 19.0183 16.347 18.5723 16.347 17.9978H15.6442C15.6442 18.1847 15.5131 18.3155 15.3269 18.3155V19.0183ZM13.3314 19.0183H15.3269V18.3155H13.3314V19.0183ZM12.9801 13.9973V18.6669H13.6828V13.9973H12.9801ZM12.6642 13.6847C12.8377 13.6841 12.9794 13.8244 12.9801 13.9987L13.6828 13.9959C13.6806 13.434 13.2236 12.9798 12.6615 12.982L12.6642 13.6847ZM7.33848 13.6847H12.6628V12.982H7.33848V13.6847ZM7.11329 13.7759C7.17269 13.717 7.25298 13.6843 7.33645 13.6847L7.34051 12.982C7.07026 12.9804 6.81054 13.0865 6.61859 13.2767L7.11329 13.7759ZM7.01994 13.9987C7.02027 13.9149 7.05389 13.8347 7.11329 13.7759L6.61859 13.2767C6.42665 13.4669 6.31824 13.7257 6.31716 13.9959L7.01994 13.9987ZM7.01994 18.6669V13.9973H6.31716V18.6669H7.01994ZM4.67306 19.0183H6.66855V18.3155H4.67306V19.0183ZM3.65304 17.9978C3.65304 18.5723 4.09821 19.0183 4.67306 19.0183V18.3155C4.48688 18.3155 4.35582 18.1847 4.35582 17.9978H3.65304ZM3.65304 11.3298V17.9978H4.35582V11.3298H3.65304ZM3.56081 11.0991C3.62076 11.1591 3.65405 11.2408 3.65306 11.3257L4.35579 11.3339C4.35899 11.0599 4.25165 10.7962 4.05794 10.6023L3.56081 11.0991ZM3.3347 11.0069C3.41935 11.0059 3.50087 11.0391 3.56081 11.0991L4.05794 10.6023C3.86423 10.4085 3.60053 10.3009 3.32648 10.3041L3.3347 11.0069ZM8.00191 15.0178H11.9994V14.315H8.00191V15.0178ZM8.3533 18.6669V14.6664H7.65052V18.6669H8.3533ZM11.9994 18.3155H8.00191V19.0183H11.9994V18.3155ZM11.648 14.6664V18.6669H12.3508V14.6664H11.648Z" fill="black"/>
</svg>
