<svg width="17" height="15" viewBox="0 0 17 15" fill="none" xmlns="http://www.w3.org/2000/svg">
<path fill-rule="evenodd" clip-rule="evenodd" d="M0.914085 6.46071C0.775155 6.56041 0.556836 6.52053 0.4576 6.38095L0.0606567 5.84255C-0.0385792 5.68303 -0.018732 5.46369 0.140045 5.36398C3.23621 3.19047 6.13389 3.29018 7.8606 3.68898V2.27321C6.94763 1.89434 5.3797 1.53542 3.55376 2.33303C3.39498 2.39286 3.19651 2.33303 3.11712 2.17351L2.79957 1.55536C2.72018 1.37589 2.77972 1.17649 2.95834 1.09673C4.94306 0.199405 6.66977 0.398809 7.8606 0.797618V0.219345C7.8606 0.0997023 7.95983 0 8.07892 0H8.8728C8.99189 0 9.09112 0.0997023 9.09112 0.219345V14.2574C9.60715 14.1976 10.143 14.0381 10.6392 13.7988C11.1155 13.5795 11.4926 13.3601 11.7308 13.2006C11.9293 13.061 12.1873 13.0012 12.4453 13.0411C14.4499 13.4 13.2193 16.2914 12.6835 17.3681C12.5247 17.6672 12.2667 17.8866 11.9491 17.9464C11.2346 18.086 10.4209 17.8667 9.74608 17.5875C8.9125 17.2286 7.99953 17.2286 7.16595 17.5875C6.49114 17.8866 5.67741 18.1059 4.96291 17.9464C4.64536 17.8866 4.3675 17.6672 4.22856 17.3681C3.69269 16.2914 2.46217 13.4 4.46673 13.0411C4.7049 13.0012 4.96291 13.061 5.18123 13.2006C5.4194 13.3402 5.79649 13.5595 6.27282 13.7988C6.769 14.0381 7.28503 14.1976 7.8209 14.2574V11.1068C7.08656 10.9673 5.77664 10.9473 4.38734 11.9643C4.24841 12.064 4.04994 12.044 3.93086 11.9045L3.47437 11.3661C3.35529 11.2265 3.37514 11.0071 3.53391 10.8875C5.20108 9.67112 6.78885 9.59136 7.8209 9.73094V8.17559C6.61023 7.87648 4.42704 7.71696 2.08507 9.35208C1.94614 9.45178 1.72782 9.4119 1.62858 9.27231L1.21179 8.71398C1.11256 8.55446 1.1324 8.33511 1.29118 8.23541C3.89116 6.42083 6.31252 6.44077 7.84075 6.75982V5.08482C6.45145 4.70595 3.79193 4.42678 0.914085 6.46071ZM4.58581 15.4738C4.58581 15.9524 4.98276 16.3312 5.45909 16.3312C5.93542 16.3312 6.33237 15.9324 6.33237 15.4738C6.33237 14.9952 5.93542 14.6164 5.45909 14.6164C4.98276 14.6164 4.58581 14.9952 4.58581 15.4738ZM11.6117 14.5964C12.088 14.5964 12.485 14.9753 12.485 15.4539C12.485 15.9324 12.088 16.3113 11.6117 16.3113C11.1354 16.3113 10.7384 15.9324 10.7384 15.4539C10.7384 14.9753 11.1354 14.5964 11.6117 14.5964ZM9.80562 2.03393C10.7384 1.7747 12.0087 1.675 13.4575 2.31309C13.6163 2.39286 13.8148 2.31309 13.8941 2.15357L14.2117 1.53542C14.2911 1.37589 14.2315 1.15655 14.0529 1.07678C12.3858 0.319047 10.8972 0.358928 9.74608 0.618154C9.70639 0.658035 9.68654 0.697916 9.68654 0.737797V1.95416C9.68654 2.01399 9.74608 2.05387 9.80562 2.03393ZM9.78578 4.92529C11.2743 4.66607 13.5766 4.70595 16.0575 6.44077C16.1964 6.54047 16.4147 6.52053 16.514 6.36101L16.9308 5.80267C17.0498 5.66309 17.0101 5.44375 16.8514 5.3241C14.0926 3.36994 11.4926 3.25029 9.72623 3.52946C9.68654 3.52946 9.64684 3.56934 9.64684 3.62916V4.80565C9.68654 4.90535 9.72623 4.94523 9.78578 4.92529ZM14.8865 9.31219C12.9018 7.9363 11.0361 7.8366 9.78578 8.01606C9.72623 8.03601 9.68654 7.97618 9.66669 7.89642V6.71993C9.66669 6.66011 9.70639 6.62023 9.74608 6.62023C11.2743 6.44077 13.4178 6.60029 15.6804 8.19553C15.8392 8.31517 15.8789 8.53452 15.7598 8.6741L15.343 9.23243C15.2437 9.39196 15.0254 9.4119 14.8865 9.31219ZM9.78577 11.0071C10.5201 10.9872 11.5323 11.1467 12.5842 11.9244C12.7232 12.0241 12.9216 12.0042 13.0407 11.8646L13.4972 11.3262C13.6163 11.1866 13.5964 10.9673 13.4377 10.8476C12.088 9.85059 10.7781 9.6113 9.78577 9.63124C9.72623 9.63124 9.68654 9.67112 9.68654 9.73094V10.8875C9.68654 10.9673 9.72623 11.0071 9.78577 11.0071Z" fill="black"/>
</svg>
