<svg width="16" height="14" viewBox="0 0 16 14" fill="none" xmlns="http://www.w3.org/2000/svg">
<path fill-rule="evenodd" clip-rule="evenodd" d="M15.5775 12.7805L11.1777 5.70732C11.0799 5.53659 11.031 5.34146 11.031 5.14634V1.70732H11.2265C11.691 1.70732 12.0821 1.34146 12.0821 0.853659C12.0821 0.390244 11.691 0 11.2265 0H4.77346C4.30904 0 3.91794 0.390244 3.91794 0.853659C3.91794 1.31707 4.30904 1.70732 4.77346 1.70732H4.96901V5.17073C4.96901 5.36585 4.92012 5.56098 4.82235 5.73171L0.422523 12.8049C-0.115234 13.6585 -0.139677 14.7073 0.349193 15.5854C0.838062 16.4634 1.74247 17 2.74465 17H13.2553C14.2575 17 15.1619 16.4634 15.6508 15.5854C16.1397 14.6829 16.1152 13.6585 15.5775 12.7805ZM9.31995 1.70732V5.17073C9.31995 5.68293 9.46661 6.17073 9.73549 6.60976L10.6643 8.12195C10.1755 8.07317 9.66216 7.95122 9.17329 7.7561C8.04889 7.31707 6.92449 7.17073 5.84897 7.2439L6.24007 6.60976C6.50895 6.17073 6.65561 5.68293 6.65561 5.17073V1.70732H9.31995ZM13.2309 15.2927C13.622 15.2927 13.9642 15.0976 14.1598 14.7561C14.3553 14.4146 14.3553 14 14.1353 13.6829L11.7643 9.85366C11.691 9.85366 11.6237 9.85976 11.5565 9.86585C11.4893 9.87195 11.4221 9.87805 11.3488 9.87805C10.4443 9.87805 9.53994 9.68293 8.61109 9.34146C7.21781 8.80488 5.84897 8.78049 4.6268 9.26829L1.86469 13.6829C1.6447 14 1.6447 14.4146 1.79136 14.7561C1.98691 15.0976 2.32911 15.2927 2.72021 15.2927H13.2309Z" fill="black"/>
</svg>
