<svg width="15" height="18" viewBox="0 0 15 18" fill="none" xmlns="http://www.w3.org/2000/svg">
<path fill-rule="evenodd" clip-rule="evenodd" d="M12.2882 18H7.43273C6.99593 18.0006 6.57433 17.8489 6.24909 17.574L0.585455 12.774C0.219318 12.4623 0.0072182 12.0211 0 11.556V1.614C0 0.722612 0.766407 0 1.71182 0H12.2882C13.2336 0 14 0.722612 14 1.614V16.386C14 17.2774 13.2336 18 12.2882 18ZM1.71182 1.2C1.46931 1.2 1.27273 1.38535 1.27273 1.614V11.436H6.24273C7.01241 11.436 7.63636 12.0243 7.63636 12.75V16.824H12.2882C12.5307 16.824 12.7273 16.6386 12.7273 16.41V1.614C12.7273 1.38535 12.5307 1.2 12.2882 1.2H1.71182ZM6.36364 16.0784V12.75C6.36364 12.687 6.3095 12.636 6.24273 12.636H2.30189L6.36364 16.0784ZM3.60818 6.186C3.60818 5.85463 3.87681 5.586 4.20818 5.586H9.37182C9.70319 5.586 9.97182 5.85463 9.97182 6.186C9.97182 6.51737 9.70319 6.786 9.37182 6.786H4.20818C3.87681 6.786 3.60818 6.51737 3.60818 6.186ZM4.20818 3C3.87681 3 3.60818 3.26863 3.60818 3.6C3.60818 3.93137 3.87681 4.2 4.20818 4.2H5.55364C5.88501 4.2 6.15364 3.93137 6.15364 3.6C6.15364 3.26863 5.88501 3 5.55364 3H4.20818Z" fill="black"/>
<path d="M7.43273 18V17.6486H7.43221L7.43273 18ZM6.24909 17.574L6.0219 17.8421L6.02226 17.8424L6.24909 17.574ZM0.585455 12.774L0.357677 13.0416L0.358264 13.0421L0.585455 12.774ZM0 11.556H-0.351433L-0.351349 11.5615L0 11.556ZM1.27273 11.436H0.921336V11.7874H1.27273V11.436ZM7.63636 16.824H7.28497V17.1754H7.63636V16.824ZM6.36364 16.0784L6.13645 16.3464L6.71503 16.8368V16.0784H6.36364ZM2.30189 12.636V12.2846H1.34378L2.0747 12.9041L2.30189 12.636ZM7.43273 18.3514H12.2882V17.6486H7.43273V18.3514ZM6.02226 17.8424C6.41282 18.1725 6.91556 18.3521 7.43324 18.3514L7.43221 17.6486C7.07631 17.6491 6.73584 17.5253 6.47592 17.3056L6.02226 17.8424ZM0.358264 13.0421L6.0219 17.8421L6.47628 17.3059L0.812645 12.5059L0.358264 13.0421ZM-0.351349 11.5615C-0.342502 12.1314 -0.0824652 12.6669 0.357677 13.0416L0.813232 12.5064C0.5211 12.2577 0.356938 11.9107 0.351349 11.5505L-0.351349 11.5615ZM-0.351391 1.614V11.556H0.351391V1.614H-0.351391ZM1.71182 -0.351391C0.592105 -0.351391 -0.351391 0.509351 -0.351391 1.614H0.351391C0.351391 0.935873 0.940709 0.351391 1.71182 0.351391V-0.351391ZM12.2882 -0.351391H1.71182V0.351391H12.2882V-0.351391ZM14.3514 1.614C14.3514 0.509351 13.4079 -0.351391 12.2882 -0.351391V0.351391C13.0593 0.351391 13.6486 0.935873 13.6486 1.614H14.3514ZM14.3514 16.386V1.614H13.6486V16.386H14.3514ZM12.2882 18.3514C13.4079 18.3514 14.3514 17.4906 14.3514 16.386H13.6486C13.6486 17.0641 13.0593 17.6486 12.2882 17.6486V18.3514ZM1.62412 1.614C1.62412 1.60363 1.62796 1.59054 1.64239 1.57693C1.65719 1.56298 1.68093 1.55139 1.71182 1.55139V0.848609C1.29501 0.848609 0.921336 1.17209 0.921336 1.614H1.62412ZM1.62412 11.436V1.614H0.921336V11.436H1.62412ZM6.24273 11.0846H1.27273V11.7874H6.24273V11.0846ZM7.98775 12.75C7.98775 11.811 7.18671 11.0846 6.24273 11.0846V11.7874C6.83811 11.7874 7.28497 12.2376 7.28497 12.75H7.98775ZM7.98775 16.824V12.75H7.28497V16.824H7.98775ZM12.2882 16.4726H7.63636V17.1754H12.2882V16.4726ZM12.3759 16.41C12.3759 16.4204 12.372 16.4335 12.3576 16.4471C12.3428 16.461 12.3191 16.4726 12.2882 16.4726V17.1754C12.705 17.1754 13.0787 16.8519 13.0787 16.41H12.3759ZM12.3759 1.614V16.41H13.0787V1.614H12.3759ZM12.2882 1.55139C12.3191 1.55139 12.3428 1.56298 12.3576 1.57693C12.372 1.59054 12.3759 1.60363 12.3759 1.614H13.0787C13.0787 1.17209 12.705 0.848609 12.2882 0.848609V1.55139ZM1.71182 1.55139H12.2882V0.848609H1.71182V1.55139ZM6.01225 12.75V16.0784H6.71503V12.75H6.01225ZM6.24273 12.9874C6.1352 12.9874 6.01225 12.9003 6.01225 12.75H6.71503C6.71503 12.4738 6.48381 12.2846 6.24273 12.2846V12.9874ZM2.30189 12.9874H6.24273V12.2846H2.30189V12.9874ZM6.59083 15.8103L2.52908 12.3679L2.0747 12.9041L6.13645 16.3464L6.59083 15.8103ZM4.20818 5.23461C3.68274 5.23461 3.25679 5.66056 3.25679 6.186H3.95957C3.95957 6.0487 4.07088 5.93739 4.20818 5.93739V5.23461ZM9.37182 5.23461H4.20818V5.93739H9.37182V5.23461ZM10.3232 6.186C10.3232 5.66056 9.89726 5.23461 9.37182 5.23461V5.93739C9.50912 5.93739 9.62043 6.0487 9.62043 6.186H10.3232ZM9.37182 7.13739C9.89726 7.13739 10.3232 6.71144 10.3232 6.186H9.62043C9.62043 6.3233 9.50912 6.43461 9.37182 6.43461V7.13739ZM4.20818 7.13739H9.37182V6.43461H4.20818V7.13739ZM3.25679 6.186C3.25679 6.71144 3.68274 7.13739 4.20818 7.13739V6.43461C4.07088 6.43461 3.95957 6.3233 3.95957 6.186H3.25679ZM3.95957 3.6C3.95957 3.4627 4.07088 3.35139 4.20818 3.35139V2.64861C3.68274 2.64861 3.25679 3.07456 3.25679 3.6H3.95957ZM4.20818 3.84861C4.07088 3.84861 3.95957 3.7373 3.95957 3.6H3.25679C3.25679 4.12544 3.68274 4.55139 4.20818 4.55139V3.84861ZM5.55364 3.84861H4.20818V4.55139H5.55364V3.84861ZM5.80225 3.6C5.80225 3.7373 5.69094 3.84861 5.55364 3.84861V4.55139C6.07907 4.55139 6.50503 4.12544 6.50503 3.6H5.80225ZM5.55364 3.35139C5.69094 3.35139 5.80225 3.4627 5.80225 3.6H6.50503C6.50503 3.07456 6.07908 2.64861 5.55364 2.64861V3.35139ZM4.20818 3.35139H5.55364V2.64861H4.20818V3.35139Z" fill="black"/>
</svg>
