<svg width="21" height="22" viewBox="0 0 21 22" fill="none" xmlns="http://www.w3.org/2000/svg">
<path fill-rule="evenodd" clip-rule="evenodd" d="M20.4454 16.5395L14.6707 7.38594C14.5423 7.16499 14.4782 6.91248 14.4782 6.65997V2.20947H14.7348C15.3444 2.20947 15.8577 1.73601 15.8577 1.10473C15.8577 0.505022 15.3444 0 14.7348 0H6.26517C5.65561 0 5.1423 0.505022 5.1423 1.10473C5.1423 1.70445 5.65561 2.20947 6.26517 2.20947H6.52182V6.69153C6.52182 6.94405 6.45766 7.19656 6.32933 7.4175L0.554561 16.571C-0.151244 17.6758 -0.183326 19.033 0.458315 20.1693C1.09996 21.3056 2.28699 22 3.60236 22H17.3976C18.713 22 19.9 21.3056 20.5417 20.1693C21.1833 19.0014 21.1512 17.6758 20.4454 16.5395ZM12.2324 2.20947V6.69153C12.2324 7.35438 12.4249 7.98565 12.7778 8.5538L13.9969 10.5108C13.3553 10.4476 12.6816 10.2898 12.0399 10.0373C10.5642 9.46915 9.08839 9.27977 7.67678 9.37446L8.19009 8.5538C8.54299 7.98565 8.73549 7.35438 8.73549 6.69153V2.20947H12.2324ZM17.3656 19.7905C17.8789 19.7905 18.328 19.538 18.5847 19.0961C18.8413 18.6542 18.8413 18.1176 18.5526 17.7073L15.4406 12.7518C15.3444 12.7518 15.2562 12.7597 15.1679 12.7676C15.0797 12.7755 14.9915 12.7834 14.8952 12.7834C13.7082 12.7834 12.5212 12.5308 11.3021 12.089C9.47337 11.3945 7.67678 11.363 6.07268 11.9943L2.4474 17.7073C2.15866 18.1176 2.15866 18.6542 2.35116 19.0961C2.60781 19.538 3.05696 19.7905 3.57028 19.7905H17.3656Z" fill="white"/>
</svg>
