<svg width="19" height="24" viewBox="0 0 19 24" fill="none" xmlns="http://www.w3.org/2000/svg">
<path fill-rule="evenodd" clip-rule="evenodd" d="M16.6768 24H10.0873C9.49448 24.0009 8.9223 23.7985 8.48091 23.432L0.794545 17.032C0.297645 16.6164 0.00979612 16.0281 0 15.408V2.152C0 0.963483 1.04012 0 2.32318 0H16.6768C17.9599 0 19 0.963483 19 2.152V21.848C19 23.0365 17.9599 24 16.6768 24ZM2.32318 1.6C1.99407 1.6 1.72727 1.84714 1.72727 2.152V15.248H8.47227C9.51684 15.248 10.3636 16.0324 10.3636 17V22.432H16.6768C17.0059 22.432 17.2727 22.1849 17.2727 21.88V2.152C17.2727 1.84714 17.0059 1.6 16.6768 1.6H2.32318ZM8.63636 21.4378V17C8.63636 16.916 8.5629 16.848 8.47227 16.848H3.12399L8.63636 21.4378ZM4.89682 8.248C4.89682 7.80617 5.25499 7.448 5.69682 7.448H12.7332C13.175 7.448 13.5332 7.80617 13.5332 8.248C13.5332 8.68983 13.175 9.048 12.7332 9.048H5.69682C5.25499 9.048 4.89682 8.68983 4.89682 8.248ZM5.69682 4C5.25499 4 4.89682 4.35817 4.89682 4.8C4.89682 5.24183 5.25499 5.6 5.69682 5.6H7.55136C7.99319 5.6 8.35136 5.24183 8.35136 4.8C8.35136 4.35817 7.99319 4 7.55136 4H5.69682Z" fill="white"/>
</svg>
