<svg width="26" height="26" viewBox="0 0 26 26" fill="none" xmlns="http://www.w3.org/2000/svg">
<mask id="path-1-outside-1_1_1741" maskUnits="userSpaceOnUse" x="0" y="0" width="26" height="26" fill="black">
<rect fill="white" width="26" height="26"/>
<path fill-rule="evenodd" clip-rule="evenodd" d="M17.053 8.95002H24.2529C24.4518 8.94921 24.6428 9.02806 24.7831 9.16898C24.9235 9.30989 25.0016 9.50114 24.9999 9.70002V16.3C25.0024 16.5004 24.9238 16.6934 24.7821 16.8351C24.6403 16.9769 24.4474 17.0554 24.2469 17.053H17.047V24.2529C17.0478 24.4513 16.9693 24.6418 16.8291 24.782C16.6888 24.9223 16.4983 25.0007 16.3 24.9999H9.70002C9.49957 25.0024 9.30662 24.9238 9.16488 24.7821C9.02313 24.6403 8.94458 24.4474 8.94702 24.2469V17.047H1.74705C1.54869 17.0478 1.35822 16.9693 1.21796 16.8291C1.0777 16.6888 0.999254 16.4983 1.00006 16.3V9.70002C0.997615 9.49957 1.07617 9.30662 1.21791 9.16488C1.35966 9.02313 1.55261 8.94458 1.75305 8.94702H8.95302V1.74705C8.95222 1.54869 9.03066 1.35822 9.17092 1.21796C9.31119 1.0777 9.50165 0.999253 9.70002 1.00005H16.3C16.4999 0.99763 16.6924 1.07577 16.834 1.21686C16.9757 1.35795 17.0546 1.55012 17.053 1.75005V8.95002ZM17.05 16.15H24.0999V9.85001H17.05C16.5529 9.85001 16.15 9.44707 16.15 8.95002V1.90005H9.85001V8.95002C9.85001 9.44707 9.44707 9.85001 8.95002 9.85001H1.90005V16.15H8.95002C9.44707 16.15 9.85001 16.5529 9.85001 17.05V24.0999H16.15V17.05C16.15 16.5529 16.5529 16.15 17.05 16.15Z"/>
</mask>
<path fill-rule="evenodd" clip-rule="evenodd" d="M17.053 8.95002H24.2529C24.4518 8.94921 24.6428 9.02806 24.7831 9.16898C24.9235 9.30989 25.0016 9.50114 24.9999 9.70002V16.3C25.0024 16.5004 24.9238 16.6934 24.7821 16.8351C24.6403 16.9769 24.4474 17.0554 24.2469 17.053H17.047V24.2529C17.0478 24.4513 16.9693 24.6418 16.8291 24.782C16.6888 24.9223 16.4983 25.0007 16.3 24.9999H9.70002C9.49957 25.0024 9.30662 24.9238 9.16488 24.7821C9.02313 24.6403 8.94458 24.4474 8.94702 24.2469V17.047H1.74705C1.54869 17.0478 1.35822 16.9693 1.21796 16.8291C1.0777 16.6888 0.999254 16.4983 1.00006 16.3V9.70002C0.997615 9.49957 1.07617 9.30662 1.21791 9.16488C1.35966 9.02313 1.55261 8.94458 1.75305 8.94702H8.95302V1.74705C8.95222 1.54869 9.03066 1.35822 9.17092 1.21796C9.31119 1.0777 9.50165 0.999253 9.70002 1.00005H16.3C16.4999 0.99763 16.6924 1.07577 16.834 1.21686C16.9757 1.35795 17.0546 1.55012 17.053 1.75005V8.95002ZM17.05 16.15H24.0999V9.85001H17.05C16.5529 9.85001 16.15 9.44707 16.15 8.95002V1.90005H9.85001V8.95002C9.85001 9.44707 9.44707 9.85001 8.95002 9.85001H1.90005V16.15H8.95002C9.44707 16.15 9.85001 16.5529 9.85001 17.05V24.0999H16.15V17.05C16.15 16.5529 16.5529 16.15 17.05 16.15Z" fill="white"/>
<path d="M24.2529 8.95002V9.65281L24.2558 9.65279L24.2529 8.95002ZM17.053 8.95002H16.3502V9.6528H17.053V8.95002ZM24.9999 9.70002L24.2972 9.69434V9.70002H24.9999ZM24.9999 16.3H24.2971L24.2972 16.3085L24.9999 16.3ZM24.2469 17.053L24.2555 16.3502H24.2469V17.053ZM17.047 17.053V16.3502H16.3442V17.053H17.047ZM17.047 24.2529H16.3442L16.3442 24.2558L17.047 24.2529ZM16.3 24.9999L16.3028 24.2972H16.3V24.9999ZM9.70002 24.9999V24.2971L9.69146 24.2972L9.70002 24.9999ZM8.94702 24.2469L9.6498 24.2555V24.2469H8.94702ZM8.94702 17.047H9.6498V16.3442H8.94702V17.047ZM1.74705 17.047V16.3442L1.74421 16.3442L1.74705 17.047ZM1.21796 16.8291L1.7149 16.3321L1.21796 16.8291ZM1.00006 16.3L1.70284 16.3028V16.3H1.00006ZM1.00006 9.70002H1.70289L1.70279 9.69146L1.00006 9.70002ZM1.75305 8.94702L1.7445 9.6498H1.75305V8.94702ZM8.95302 8.94702V9.6498H9.6558V8.94702H8.95302ZM8.95302 1.74705H9.65581L9.6558 1.74421L8.95302 1.74705ZM9.70002 1.00005L9.69718 1.70284H9.70002V1.00005ZM16.3 1.00005V1.70289L16.3085 1.70278L16.3 1.00005ZM17.053 1.75005L16.3502 1.74433V1.75005H17.053ZM24.0999 16.15V16.8528H24.8027V16.15H24.0999ZM24.0999 9.85001H24.8027V9.14723H24.0999V9.85001ZM16.15 1.90005H16.8528V1.19727H16.15V1.90005ZM9.85001 1.90005V1.19727H9.14723V1.90005H9.85001ZM1.90005 9.85001V9.14723H1.19727V9.85001H1.90005ZM1.90005 16.15H1.19727V16.8528H1.90005V16.15ZM9.85001 24.0999H9.14723V24.8027H9.85001V24.0999ZM16.15 24.0999V24.8027H16.8528V24.0999H16.15ZM24.2529 8.24724H17.053V9.6528H24.2529V8.24724ZM25.281 8.67304C25.0081 8.39901 24.6368 8.24567 24.2501 8.24724L24.2558 9.65279C24.2668 9.65275 24.2774 9.65712 24.2852 9.66492L25.281 8.67304ZM25.7027 9.70569C25.7058 9.31895 25.554 8.94706 25.281 8.67304L24.2852 9.66492C24.2929 9.67273 24.2973 9.68332 24.2972 9.69434L25.7027 9.70569ZM25.7027 16.3V9.70002H24.2972V16.3H25.7027ZM25.279 17.3321C25.5547 17.0564 25.7074 16.6812 25.7027 16.2914L24.2972 16.3085C24.2973 16.3196 24.293 16.3303 24.2851 16.3382L25.279 17.3321ZM24.2384 17.7557C24.6282 17.7605 25.0034 17.6077 25.279 17.3321L24.2851 16.3382C24.2773 16.346 24.2666 16.3504 24.2555 16.3503L24.2384 17.7557ZM17.047 17.7558H24.2469V16.3502H17.047V17.7558ZM17.7498 24.2529V17.053H16.3442V24.2529H17.7498ZM17.326 25.279C17.5988 25.0062 17.7513 24.6358 17.7498 24.2501L16.3442 24.2558C16.3442 24.2668 16.3399 24.2773 16.3321 24.2851L17.326 25.279ZM16.2971 25.7027C16.6829 25.7043 17.0533 25.5517 17.326 25.279L16.3321 24.2851C16.3244 24.2929 16.3138 24.2972 16.3028 24.2972L16.2971 25.7027ZM9.70002 25.7027H16.3V24.2972H9.70002V25.7027ZM8.66793 25.279C8.94358 25.5547 9.31878 25.7074 9.70857 25.7027L9.69146 24.2972C9.68036 24.2973 9.66967 24.293 9.66182 24.2851L8.66793 25.279ZM8.24429 24.2384C8.23954 24.6282 8.39229 25.0034 8.66793 25.279L9.66182 24.2851C9.65396 24.2773 9.64961 24.2666 9.64975 24.2555L8.24429 24.2384ZM8.24424 17.047V24.2469H9.6498V17.047H8.24424ZM1.74705 17.7498H8.94702V16.3442H1.74705V17.7498ZM0.721018 17.326C0.993775 17.5988 1.36416 17.7513 1.74989 17.7498L1.74421 16.3442C1.73322 16.3442 1.72267 16.3399 1.7149 16.3321L0.721018 17.326ZM0.297279 16.2971C0.295721 16.6829 0.448263 17.0533 0.721018 17.326L1.7149 16.3321C1.70713 16.3244 1.70279 16.3138 1.70283 16.3028L0.297279 16.2971ZM0.297273 9.70002V16.3H1.70284V9.70002H0.297273ZM0.72097 8.66793C0.445329 8.94357 0.292581 9.31878 0.297325 9.70857L1.70279 9.69146C1.70265 9.68036 1.707 9.66967 1.71485 9.66182L0.72097 8.66793ZM1.76161 8.24429C1.37182 8.23954 0.99661 8.39229 0.72097 8.66793L1.71485 9.66182C1.72271 9.65396 1.73339 9.64961 1.7445 9.64975L1.76161 8.24429ZM8.95302 8.24424H1.75305V9.6498H8.95302V8.24424ZM8.25024 1.74705V8.94702H9.6558V1.74705H8.25024ZM8.67398 0.721018C8.40123 0.993775 8.24868 1.36416 8.25024 1.74989L9.6558 1.74421C9.65575 1.73322 9.6601 1.72267 9.66786 1.7149L8.67398 0.721018ZM9.70285 0.297279C9.31712 0.29572 8.94674 0.448263 8.67398 0.721018L9.66786 1.7149C9.67564 1.70713 9.68619 1.70279 9.69718 1.70283L9.70285 0.297279ZM16.3 0.297273H9.70002V1.70284H16.3V0.297273ZM17.33 0.71893C17.0545 0.444561 16.6802 0.292609 16.2915 0.297325L16.3085 1.70278C16.3196 1.70265 16.3302 1.70698 16.3381 1.7148L17.33 0.71893ZM17.7557 1.75577C17.7589 1.36699 17.6055 0.993301 17.33 0.71893L16.3381 1.7148C16.3459 1.72261 16.3503 1.73325 16.3502 1.74433L17.7557 1.75577ZM17.7558 8.95002V1.75005H16.3502V8.95002H17.7558ZM24.0999 15.4472H17.05V16.8528H24.0999V15.4472ZM23.3972 9.85001V16.15H24.8027V9.85001H23.3972ZM17.05 10.5528H24.0999V9.14723H17.05V10.5528ZM15.4472 8.95002C15.4472 9.83521 16.1648 10.5528 17.05 10.5528V9.14723C16.9411 9.14723 16.8528 9.05894 16.8528 8.95002H15.4472ZM15.4472 1.90005V8.95002H16.8528V1.90005H15.4472ZM9.85001 2.60283H16.15V1.19727H9.85001V2.60283ZM10.5528 8.95002V1.90005H9.14723V8.95002H10.5528ZM8.95002 10.5528C9.83521 10.5528 10.5528 9.83521 10.5528 8.95002H9.14723C9.14723 9.05894 9.05894 9.14723 8.95002 9.14723V10.5528ZM1.90005 10.5528H8.95002V9.14723H1.90005V10.5528ZM2.60283 16.15V9.85001H1.19727V16.15H2.60283ZM8.95002 15.4472H1.90005V16.8528H8.95002V15.4472ZM10.5528 17.05C10.5528 16.1648 9.83521 15.4472 8.95002 15.4472V16.8528C9.05894 16.8528 9.14723 16.9411 9.14723 17.05H10.5528ZM10.5528 24.0999V17.05H9.14723V24.0999H10.5528ZM16.15 23.3972H9.85001V24.8027H16.15V23.3972ZM15.4472 17.05V24.0999H16.8528V17.05H15.4472ZM17.05 15.4472C16.1648 15.4472 15.4472 16.1648 15.4472 17.05H16.8528C16.8528 16.9411 16.9411 16.8528 17.05 16.8528V15.4472Z" fill="white" mask="url(#path-1-outside-1_1_1741)"/>
</svg>
