<svg width="29" height="29" viewBox="0 0 29 29" fill="none" xmlns="http://www.w3.org/2000/svg">
<path fill-rule="evenodd" clip-rule="evenodd" d="M24.0121 0.846674C24.4071 0.979273 24.7048 1.33317 24.7874 1.69889C26.2516 7.21059 25.4699 9.32243 22.2531 11.2674C22.0479 11.3914 21.9043 11.4757 21.4846 11.7199C19.6581 12.7761 18.7407 13.413 17.6444 14.5297L5.19956 27.2069C4.8402 27.5729 4.17315 27.5133 3.74758 27.0821L1.36694 24.6695C0.945597 24.2425 0.88632 23.5774 1.24203 23.2151L23.0326 1.01768C23.2644 0.781504 23.6398 0.721701 24.0121 0.846674ZM22.9853 3.89338L15.9844 11.0158L17.2894 12.3397C18.2688 11.4934 19.2166 10.9293 20.0982 10.4326C22.4212 9.01984 23.7742 8.19365 22.9853 3.89338ZM15.6071 13.9048L4.6005 25.1066L3.29484 23.7825L14.5 12.3787L15.8057 13.7028L15.6071 13.9048Z" fill="white"/>
</svg>
