<svg width="21" height="22" viewBox="0 0 21 22" fill="none" xmlns="http://www.w3.org/2000/svg">
<path fill-rule="evenodd" clip-rule="evenodd" d="M1.12916 7.89642C0.957545 8.01828 0.687856 7.96954 0.565271 7.79893L0.0749289 7.1409C-0.0476567 6.94593 -0.0231396 6.67784 0.172997 6.55598C3.99767 3.89947 7.57716 4.02133 9.71015 4.50876V2.77837C8.58236 2.31531 6.64551 1.87662 4.38994 2.85149C4.1938 2.9246 3.94863 2.85149 3.85056 2.65651L3.45829 1.90099C3.36022 1.68165 3.43377 1.43793 3.65443 1.34044C6.10614 0.243717 8.23912 0.487433 9.71015 0.974867V0.268088C9.71015 0.121858 9.83274 0 9.97984 0H10.9605C11.1076 0 11.2302 0.121858 11.2302 0.268088V17.4257C11.8677 17.3526 12.5296 17.1577 13.1425 16.8652C13.731 16.5971 14.1968 16.329 14.491 16.134C14.7362 15.9634 15.0549 15.8903 15.3736 15.9391C17.8498 16.3778 16.3298 19.9117 15.6678 21.2277C15.4717 21.5933 15.1529 21.8614 14.7607 21.9345C13.8781 22.1051 12.8729 21.837 12.0393 21.4958C11.0096 21.0571 9.88177 21.0571 8.85205 21.4958C8.01847 21.8614 7.01327 22.1295 6.13065 21.9345C5.73838 21.8614 5.39514 21.5933 5.22352 21.2277C4.56156 19.9117 3.0415 16.3778 5.51773 15.9391C5.81193 15.8903 6.13065 15.9634 6.40034 16.134C6.69455 16.3046 7.16037 16.5727 7.74878 16.8652C8.36171 17.1577 8.99916 17.3526 9.66112 17.4257V13.575C8.75398 13.4044 7.13586 13.38 5.41966 14.623C5.24804 14.7449 5.00287 14.7205 4.85576 14.5499L4.29187 13.8919C4.14477 13.7213 4.16929 13.4532 4.36542 13.3069C6.42486 11.8203 8.38623 11.7228 9.66112 11.8934V9.99239C8.16557 9.62681 5.46869 9.43184 2.57567 11.4303C2.40405 11.5522 2.13437 11.5034 2.01178 11.3328L1.49692 10.6504C1.37434 10.4554 1.39885 10.1874 1.59499 10.0655C4.80673 7.84768 7.79782 7.87205 9.68563 8.262V6.21478C7.96944 5.75171 4.68414 5.41051 1.12916 7.89642ZM5.66483 18.9124C5.66483 19.4973 6.15517 19.9604 6.74358 19.9604C7.33199 19.9604 7.82233 19.473 7.82233 18.9124C7.82233 18.3275 7.33199 17.8644 6.74358 17.8644C6.15517 17.8644 5.66483 18.3275 5.66483 18.9124ZM14.3439 17.8401C14.9323 17.8401 15.4226 18.3031 15.4226 18.888C15.4226 19.473 14.9323 19.936 14.3439 19.936C13.7555 19.936 13.2651 19.473 13.2651 18.888C13.2651 18.3031 13.7555 17.8401 14.3439 17.8401ZM12.1128 2.48591C13.2651 2.16908 14.8342 2.04722 16.624 2.82711C16.8201 2.9246 17.0653 2.82711 17.1634 2.63214L17.5556 1.87662C17.6537 1.68165 17.5801 1.41356 17.3595 1.31607C15.3001 0.389947 13.4613 0.43869 12.0393 0.755522C11.9902 0.804265 11.9657 0.853009 11.9657 0.901752V2.38842C11.9657 2.46154 12.0393 2.51028 12.1128 2.48591ZM12.0883 6.0198C13.9271 5.70297 16.7711 5.75171 19.8357 7.87205C20.0073 7.99391 20.277 7.96954 20.3996 7.77456L20.9145 7.09216C21.0616 6.92156 21.0125 6.65347 20.8164 6.50724C17.4085 4.11881 14.1968 3.97258 12.0148 4.31379C11.9657 4.31379 11.9167 4.36253 11.9167 4.43564V5.87357C11.9657 5.99543 12.0148 6.04417 12.0883 6.0198ZM18.3892 11.3816C15.9375 9.69993 13.6329 9.57807 12.0883 9.79741C12.0148 9.82178 11.9657 9.74867 11.9412 9.65118V8.21325C11.9412 8.14014 11.9902 8.0914 12.0393 8.0914C13.9271 7.87205 16.5749 8.06702 19.3699 10.0168C19.566 10.163 19.6151 10.4311 19.468 10.6017L18.9531 11.2841C18.8305 11.4791 18.5608 11.5034 18.3892 11.3816ZM12.0883 13.4532C12.9954 13.4288 14.2458 13.6238 15.5452 14.5743C15.7168 14.6961 15.962 14.6717 16.1091 14.5011L16.673 13.8431C16.8201 13.6725 16.7956 13.4044 16.5995 13.2582C14.9323 12.0396 13.3142 11.7471 12.0883 11.7715C12.0148 11.7715 11.9657 11.8203 11.9657 11.8934V13.3069C11.9657 13.4044 12.0148 13.4532 12.0883 13.4532Z" fill="white"/>
</svg>
