<svg width="24" height="24" viewBox="0 0 24 24" fill="none" xmlns="http://www.w3.org/2000/svg">
<path d="M20.2014 3.79805L19.457 4.54235L19.4572 4.54248L20.2014 3.79805ZM11.5184 3.79805L12.2628 4.54235L11.5184 3.79805ZM20.2014 12.4815L19.4572 11.737L19.457 11.7372L20.2014 12.4815ZM16.4029 16.2802L15.6585 15.5359L14.9143 16.2802L15.6586 17.0245L16.4029 16.2802ZM16.4033 16.2806L17.1477 17.0249L17.892 16.2806L17.1477 15.5363L16.4033 16.2806ZM12.4825 20.2017L13.2265 20.9463L13.2268 20.946L12.4825 20.2017ZM3.79861 20.2017L3.0544 20.9462L3.05454 20.9463L3.79861 20.2017ZM3.79861 11.5183L4.54282 12.2628L4.54295 12.2626L3.79861 11.5183ZM7.59756 7.71917L8.3419 8.46347L9.08618 7.71915L8.34188 6.97484L7.59756 7.71917ZM7.59753 7.71914L6.85319 6.97483L6.1089 7.71916L6.85321 8.46346L7.59753 7.71914ZM20.9457 3.05374C18.1374 0.245244 13.5824 0.245244 10.7741 3.05374L12.2628 4.54235C14.2489 2.55606 17.4709 2.55606 19.457 4.54235L20.9457 3.05374ZM20.9456 13.2259C23.755 10.4174 23.755 5.8621 20.9456 3.05361L19.4572 4.54248C21.4441 6.52877 21.4441 9.75074 19.4572 11.737L20.9456 13.2259ZM17.1472 17.0245L20.9457 13.2258L19.457 11.7372L15.6585 15.5359L17.1472 17.0245ZM17.1477 15.5363L17.1472 15.5359L15.6586 17.0245L15.659 17.025L17.1477 15.5363ZM13.2268 20.946L17.1477 17.0249L15.659 15.5363L11.7381 19.4574L13.2268 20.946ZM8.14053 23.0526C9.98041 23.0526 11.8224 22.3495 13.2265 20.9463L11.7384 19.4572C10.7444 20.4505 9.44439 20.9474 8.14053 20.9474V23.0526ZM3.05454 20.9463C4.45867 22.3495 6.30066 23.0526 8.14053 23.0526V20.9474C6.83668 20.9474 5.53669 20.4505 4.54268 19.4572L3.05454 20.9463ZM3.0544 10.7739C0.245023 13.5824 0.245024 18.1377 3.0544 20.9462L4.54282 19.4573C2.5559 17.471 2.5559 14.249 4.54282 12.2628L3.0544 10.7739ZM6.85322 6.97486L3.05427 10.774L4.54295 12.2626L8.3419 8.46347L6.85322 6.97486ZM6.85321 8.46346L6.85323 8.46349L8.34188 6.97484L8.34185 6.97482L6.85321 8.46346ZM10.7741 3.05374L6.85319 6.97483L8.34187 8.46344L12.2628 4.54235L10.7741 3.05374Z" fill="white"/>
</svg>
