<svg width="28" height="28" viewBox="0 0 28 28" fill="none" xmlns="http://www.w3.org/2000/svg">
<path fill-rule="evenodd" clip-rule="evenodd" d="M13.0522 5.38788L13.0523 0.983521C13.0523 0.717714 13.1601 0.479722 13.3307 0.288091C13.5029 0.0949144 13.7574 0.0114592 14.0044 0.000637358C14.2424 -0.0101844 14.5133 0.118078 14.678 0.288068C14.8501 0.465785 14.9564 0.730045 14.9564 0.983489L14.9563 5.38785L16.2917 4.00934C16.4743 3.8208 16.7123 3.73271 16.9653 3.72189C17.2198 3.70952 17.4578 3.83778 17.6389 4.00932C17.8141 4.17467 17.9173 4.46366 17.9173 4.70474C17.9188 4.95664 17.8111 5.22245 17.6389 5.40017L14.6779 8.457C14.5057 8.65018 14.2512 8.73363 14.0042 8.74445C13.8634 8.75086 13.711 8.70856 13.5759 8.63772C13.4871 8.59274 13.4043 8.53283 13.3316 8.45802L13.3306 8.45702L10.3697 5.40029C10.187 5.21176 10.1017 4.96604 10.0912 4.70487C10.0793 4.44215 10.2035 4.19643 10.3697 4.00944C10.5299 3.82863 10.8098 3.72199 11.0433 3.72199C11.2873 3.72044 11.5448 3.8317 11.717 4.00942L13.0522 5.38788ZM22.781 14.8523L27.0473 14.8522C27.2928 14.8522 27.5488 14.7425 27.7209 14.5647C27.8856 14.3947 28.0099 14.115 27.9994 13.8693C27.9889 13.6143 27.9081 13.3516 27.721 13.1739C27.5353 12.9977 27.3048 12.8864 27.0473 12.8864L22.781 12.8865L24.1163 11.508C24.2885 11.3303 24.3962 11.0645 24.3948 10.8126C24.3948 10.5715 24.2915 10.2825 24.1163 10.1172C23.9352 9.94562 23.6972 9.81736 23.4427 9.82973C23.1897 9.84055 22.9517 9.92864 22.7691 10.1172L20.1763 12.7938L19.8076 13.1745C19.7405 13.2438 19.6802 13.3313 19.633 13.4273C19.4584 13.7949 19.516 14.2634 19.808 14.5649L22.769 17.6216C22.9411 17.7993 23.1986 17.9106 23.4426 17.909C23.6761 17.909 23.956 17.8024 24.1162 17.6216C24.2824 17.4346 24.4066 17.1889 24.3947 16.9261C24.3842 16.665 24.2989 16.4193 24.1162 16.2307L22.781 14.8523ZM14.9577 27.0165L14.9578 22.6121L16.2916 23.989C16.4637 24.1668 16.7212 24.278 16.9652 24.2765C17.1987 24.2765 17.4786 24.1698 17.6388 23.989C17.805 23.802 17.9292 23.5563 17.9173 23.2936C17.9068 23.0324 17.8215 22.7867 17.6388 22.5982L14.6779 19.5414C14.5942 19.455 14.497 19.3884 14.3925 19.3416C14.2682 19.2834 14.1324 19.2498 14.0058 19.2555C13.968 19.2572 13.93 19.2606 13.8921 19.2658C13.806 19.2759 13.7211 19.2977 13.6401 19.3312C13.5438 19.3698 13.4541 19.4241 13.3772 19.4967C13.3612 19.511 13.3457 19.5259 13.3306 19.5415L10.3696 22.5983C10.1975 22.776 10.0897 23.0418 10.0912 23.2937C10.0912 23.5348 10.1944 23.8238 10.3696 23.9891C10.5507 24.1607 10.7887 24.2889 11.0432 24.2766C11.2962 24.2657 11.5342 24.1777 11.7169 23.9891L13.0537 22.6091L13.0536 27.0165C13.0536 27.27 13.1599 27.5342 13.332 27.7119C13.4967 27.8819 13.7676 28.0102 14.0056 27.9994C14.2526 27.9885 14.5071 27.9051 14.6793 27.7119C14.8484 27.5187 14.9562 27.2838 14.9577 27.0165ZM8.39712 13.4937C8.35976 13.3944 8.3072 13.3017 8.23686 13.2223C8.22302 13.2059 8.20857 13.1899 8.19348 13.1743L5.23255 10.1176C5.0604 9.93984 4.80292 9.82858 4.55892 9.83013C4.32539 9.83013 4.04546 9.93677 3.88528 10.1176C3.71912 10.3046 3.59487 10.5503 3.60684 10.813C3.61731 11.0742 3.70264 11.3199 3.88526 11.5084L5.22202 12.8884L0.952697 12.8885C0.707196 12.8885 0.451215 12.9982 0.279062 13.176C0.114394 13.346 -0.00985838 13.6257 0.000616461 13.8714C0.0110912 14.1264 0.0919227 14.3891 0.27904 14.5668C0.466157 14.7414 0.693692 14.8527 0.952666 14.8543L5.219 14.8542L3.88519 16.2311C3.71303 16.4089 3.60525 16.6747 3.60674 16.9266C3.60674 17.1677 3.71002 17.4566 3.88516 17.622C4.06629 17.7935 4.30431 17.9218 4.55879 17.9094C4.81178 17.8986 5.0498 17.8105 5.23243 17.622L8.19196 14.5667L8.19346 14.5651C8.27718 14.4787 8.34171 14.3784 8.387 14.2705C8.44345 14.1422 8.47598 14.0019 8.47041 13.8713C8.4688 13.8322 8.46555 13.793 8.46052 13.7539C8.45074 13.665 8.42961 13.5773 8.39712 13.4937Z" fill="black"/>
</svg>
