<svg width="13" height="16" viewBox="0 0 13 16" fill="none" xmlns="http://www.w3.org/2000/svg">
<path fill-rule="evenodd" clip-rule="evenodd" d="M11.4105 16H6.90182C6.49622 16.0006 6.10473 15.8657 5.80273 15.6213L0.543636 11.3547C0.203652 11.0776 0.00670261 10.6854 0 10.272V1.43467C0 0.642322 0.711664 0 1.58955 0H11.4105C12.2883 0 13 0.642322 13 1.43467V14.5653C13 15.3577 12.2883 16 11.4105 16ZM1.58955 1.06667C1.36436 1.06667 1.18182 1.23143 1.18182 1.43467V10.1653H5.79682C6.51153 10.1653 7.09091 10.6883 7.09091 11.3333V14.9547H11.4105C11.6356 14.9547 11.8182 14.7899 11.8182 14.5867V1.43467C11.8182 1.23143 11.6356 1.06667 11.4105 1.06667H1.58955ZM5.90909 14.2919V11.3333C5.90909 11.2774 5.85882 11.232 5.79682 11.232H2.13747L5.90909 14.2919ZM3.35045 5.49867C3.35045 5.20411 3.58924 4.96533 3.88379 4.96533H8.72621C9.02076 4.96533 9.25955 5.20411 9.25955 5.49867C9.25955 5.79322 9.02076 6.032 8.72621 6.032H3.88379C3.58924 6.032 3.35045 5.79322 3.35045 5.49867ZM3.88379 2.66667C3.58924 2.66667 3.35045 2.90545 3.35045 3.2C3.35045 3.49455 3.58924 3.73333 3.88379 3.73333H5.18076C5.47531 3.73333 5.71409 3.49455 5.71409 3.2C5.71409 2.90545 5.47531 2.66667 5.18076 2.66667H3.88379Z" fill="white"/>
</svg>
