<svg width="16" height="17" viewBox="0 0 16 17" fill="none" xmlns="http://www.w3.org/2000/svg">
<path fill-rule="evenodd" clip-rule="evenodd" d="M14.837 0.796906C15.0672 0.868133 15.2364 1.07133 15.2787 1.28522C16.0453 4.50485 15.5485 5.76172 13.6209 6.96249C13.498 7.03908 13.412 7.09118 13.1607 7.24225C12.0671 7.89566 11.5159 8.28653 10.8511 8.96298L3.30476 16.6421C3.08685 16.8638 2.69516 16.8403 2.45208 16.5937L1.09226 15.2146C0.851592 14.9705 0.828211 14.5799 1.04391 14.3605L14.2574 0.914547C14.3979 0.771483 14.62 0.729774 14.837 0.796906ZM14.1797 2.60842L9.93464 6.92295L10.68 7.67975C11.2713 7.16456 11.8391 6.81603 12.3667 6.50834C13.7588 5.63636 14.5697 5.12652 14.1797 2.60842ZM9.6625 8.63035L2.98843 15.4159L2.24266 14.659L9.03711 7.75101L9.78288 8.50796L9.6625 8.63035Z" fill="white"/>
</svg>
