<svg width="15" height="16" viewBox="0 0 15 16" fill="none" xmlns="http://www.w3.org/2000/svg">
<path fill-rule="evenodd" clip-rule="evenodd" d="M14.6039 12.0287L10.479 5.37159C10.3874 5.2109 10.3416 5.02726 10.3416 4.84362V1.60689H10.5249C10.9603 1.60689 11.3269 1.26255 11.3269 0.803443C11.3269 0.367288 10.9603 0 10.5249 0H4.47512C4.03972 0 3.67307 0.367288 3.67307 0.803443C3.67307 1.2396 4.03972 1.60689 4.47512 1.60689H4.65845V4.86657C4.65845 5.05022 4.61261 5.23386 4.52095 5.39455L0.396115 12.0517C-0.108031 12.8551 -0.130947 13.8422 0.327368 14.6686C0.785683 15.495 1.63357 16 2.57311 16H12.4269C13.3664 16 14.2143 15.495 14.6726 14.6686C15.1309 13.8192 15.108 12.8551 14.6039 12.0287ZM8.73745 1.60689V4.86657C8.73745 5.34864 8.87495 5.80775 9.12702 6.22095L9.99782 7.64419C9.5395 7.59828 9.05827 7.4835 8.59996 7.29986C7.54583 6.88666 6.49171 6.74892 5.48341 6.81779L5.85007 6.22095C6.10214 5.80775 6.23963 5.34864 6.23963 4.86657V1.60689H8.73745ZM12.4044 14.3931C12.771 14.3931 13.0919 14.2095 13.2752 13.8881C13.4585 13.5667 13.4585 13.1765 13.2523 12.878L11.0294 9.27403C10.9607 9.27403 10.8977 9.27977 10.8347 9.28551C10.7716 9.29125 10.7086 9.29699 10.6399 9.29699C9.79199 9.29699 8.94411 9.11334 8.07331 8.79197C6.76711 8.28695 5.48383 8.26399 4.33804 8.7231L1.74856 12.878C1.54232 13.1765 1.54232 13.5667 1.67981 13.8881C1.86314 14.2095 2.18396 14.3931 2.55061 14.3931H12.4044Z" fill="white"/>
</svg>
