<svg width="14" height="14" viewBox="0 0 14 14" fill="none" xmlns="http://www.w3.org/2000/svg">
<path d="M11.9208 2.07883L11.4742 2.52541L11.4743 2.52549L11.9208 2.07883ZM6.71105 2.07883L7.15766 2.52541L6.71105 2.07883ZM11.9208 7.28888L11.4743 6.84222L11.4742 6.8423L11.9208 7.28888ZM9.64173 9.56811L9.19512 9.12152L8.74855 9.56812L9.19514 10.0147L9.64173 9.56811ZM9.64201 9.56839L10.0886 10.015L10.5352 9.56837L10.0886 9.12179L9.64201 9.56839ZM7.28947 11.921L7.73592 12.3678L7.73608 12.3676L7.28947 11.921ZM2.07917 11.921L1.63264 12.3677L1.63272 12.3678L2.07917 11.921ZM2.07917 6.71099L2.52569 7.15765L2.52577 7.15757L2.07917 6.71099ZM4.35853 4.4315L4.80514 4.87808L5.25171 4.43149L4.80513 3.98491L4.35853 4.4315ZM4.35852 4.43148L3.91191 3.9849L3.46534 4.43149L3.91192 4.87808L4.35852 4.43148ZM12.3674 1.63224C10.6824 -0.0528536 7.94946 -0.0528536 6.26445 1.63224L7.15766 2.52541C8.34937 1.33364 10.2825 1.33364 11.4742 2.52541L12.3674 1.63224ZM12.3674 7.73555C14.053 6.05045 14.053 3.31726 12.3674 1.63216L11.4743 2.52549C12.6665 3.71726 12.6665 5.65044 11.4743 6.84222L12.3674 7.73555ZM10.0883 10.0147L12.3674 7.73546L11.4742 6.8423L9.19512 9.12152L10.0883 10.0147ZM10.0886 9.12179L10.0883 9.12151L9.19514 10.0147L9.19541 10.015L10.0886 9.12179ZM7.73608 12.3676L10.0886 10.015L9.1954 9.1218L6.84287 11.4745L7.73608 12.3676ZM4.68432 13.6316C5.78824 13.6316 6.89344 13.2097 7.73592 12.3678L6.84303 11.4743C6.24663 12.0703 5.46663 12.3684 4.68432 12.3684V13.6316ZM1.63272 12.3678C2.4752 13.2097 3.5804 13.6316 4.68432 13.6316V12.3684C3.90201 12.3684 3.12201 12.0703 2.52561 11.4743L1.63272 12.3678ZM1.63264 6.26432C-0.0529859 7.94942 -0.0529858 10.6826 1.63264 12.3677L2.52569 11.4744C1.33354 10.2826 1.33354 8.34942 2.52569 7.15765L1.63264 6.26432ZM3.91193 3.98492L1.63256 6.2644L2.52577 7.15757L4.80514 4.87808L3.91193 3.98492ZM3.91192 4.87808L3.91194 4.87809L4.80513 3.98491L4.80511 3.98489L3.91192 4.87808ZM6.26445 1.63224L3.91191 3.9849L4.80512 4.87807L7.15766 2.52541L6.26445 1.63224Z" fill="white"/>
</svg>
