<svg width="14" height="15" viewBox="0 0 14 15" fill="none" xmlns="http://www.w3.org/2000/svg">
<path fill-rule="evenodd" clip-rule="evenodd" d="M0.752776 5.38392C0.638363 5.46701 0.458571 5.43377 0.376847 5.31746L0.0499526 4.8688C-0.0317711 4.73586 -0.0154264 4.55307 0.115332 4.46999C2.66511 2.65873 5.05144 2.74181 6.47343 3.07415V1.89434C5.72158 1.57862 4.43034 1.27951 2.92663 1.94419C2.79587 1.99405 2.63242 1.94419 2.56704 1.81126L2.30553 1.29613C2.24015 1.14658 2.28918 0.980406 2.43628 0.913938C4.07076 0.16617 5.49275 0.332341 6.47343 0.664682V0.182788C6.47343 0.0830852 6.55516 0 6.65323 0H7.30702C7.40508 0 7.48681 0.0830852 7.48681 0.182788V11.8812C7.91177 11.8313 8.35308 11.6984 8.7617 11.499C9.15397 11.3162 9.46452 11.1334 9.66066 11.0005C9.82411 10.8842 10.0366 10.8343 10.2491 10.8675C11.8999 11.1667 10.8865 13.5761 10.4452 14.4734C10.3144 14.7227 10.102 14.9055 9.84045 14.9553C9.25204 15.0717 8.58191 14.8889 8.02618 14.6562C7.3397 14.3571 6.58785 14.3571 5.90137 14.6562C5.34565 14.9055 4.67551 15.0883 4.0871 14.9553C3.82559 14.9055 3.59676 14.7227 3.48235 14.4734C3.04104 13.5761 2.02767 11.1667 3.67848 10.8675C3.87462 10.8343 4.0871 10.8842 4.26689 11.0005C4.46303 11.1168 4.77358 11.2996 5.16585 11.499C5.57447 11.6984 5.99944 11.8313 6.44074 11.8812V9.2557C5.83599 9.13938 4.75724 9.12276 3.61311 9.97023C3.49869 10.0533 3.33524 10.0367 3.23718 9.92038L2.86125 9.47172C2.76318 9.3554 2.77952 9.17261 2.91028 9.07291C4.28324 8.05927 5.59082 7.9928 6.44074 8.10912V6.81299C5.44372 6.56373 3.64579 6.4308 1.71712 7.7934C1.6027 7.87648 1.42291 7.84325 1.34119 7.72693L0.997947 7.26165C0.916224 7.12871 0.932568 6.94593 1.06333 6.86284C3.20449 5.35069 5.19854 5.36731 6.45709 5.63318V4.23735C5.31296 3.92162 3.12276 3.68898 0.752776 5.38392ZM3.77655 12.8948C3.77655 13.2936 4.10345 13.6094 4.49572 13.6094C4.88799 13.6094 5.21489 13.277 5.21489 12.8948C5.21489 12.496 4.88799 12.1803 4.49572 12.1803C4.10345 12.1803 3.77655 12.496 3.77655 12.8948ZM9.56292 12.1637C9.95519 12.1637 10.2821 12.4794 10.2821 12.8782C10.2821 13.277 9.95519 13.5927 9.56292 13.5927C9.17064 13.5927 8.84375 13.277 8.84375 12.8782C8.84375 12.4794 9.17064 12.1637 9.56292 12.1637ZM8.07561 1.69494C8.84381 1.47892 9.88987 1.39583 11.083 1.92758C11.2138 1.99405 11.3772 1.92758 11.4426 1.79464L11.7041 1.27951C11.7695 1.14658 11.7205 0.963789 11.5734 0.89732C10.2004 0.265873 8.97457 0.299107 8.02657 0.515128C7.99388 0.548362 7.97754 0.581596 7.97754 0.614831V1.62847C7.97754 1.67832 8.02657 1.71156 8.07561 1.69494ZM8.05887 4.10441C9.28473 3.88839 11.1807 3.92162 13.2238 5.36731C13.3382 5.45039 13.518 5.43377 13.5997 5.30084L13.943 4.83556C14.041 4.71924 14.0084 4.53645 13.8776 4.43675C11.6057 2.80828 9.46452 2.70858 8.00984 2.94122C7.97715 2.94122 7.94446 2.97445 7.94446 3.0243V4.00471C7.97715 4.08779 8.00984 4.12103 8.05887 4.10441ZM12.2595 7.76016C10.625 6.61359 9.08859 6.5305 8.05887 6.68005C8.00984 6.69667 7.97715 6.64682 7.9608 6.58035V5.59995C7.9608 5.55009 7.99349 5.51686 8.02618 5.51686C9.28473 5.36731 11.05 5.50024 12.9133 6.82961C13.044 6.92931 13.0767 7.1121 12.9786 7.22842L12.6354 7.69369C12.5537 7.82663 12.3739 7.84325 12.2595 7.76016ZM8.05926 9.17261C8.66402 9.15599 9.4976 9.28893 10.3639 9.937C10.4783 10.0201 10.6417 10.0035 10.7398 9.88714L11.1157 9.43848C11.2138 9.32216 11.1975 9.13938 11.0667 9.03967C9.95525 8.20882 8.8765 8.00942 8.05926 8.02604C8.01023 8.02604 7.97754 8.05927 7.97754 8.10912V9.07291C7.97754 9.13938 8.01023 9.17261 8.05926 9.17261Z" fill="white"/>
</svg>
