<svg width="24" height="31" viewBox="0 0 24 31" fill="none" xmlns="http://www.w3.org/2000/svg">
<path fill-rule="evenodd" clip-rule="evenodd" d="M21.096 30.5H12.8591C12.1181 30.5011 11.4029 30.2482 10.8511 29.79L1.24318 21.79C0.622057 21.2705 0.262245 20.5351 0.25 19.76V3.19C0.25 1.70435 1.55015 0.5 3.15398 0.5H21.096C22.6998 0.5 24 1.70435 24 3.19V27.81C24 29.2956 22.6998 30.5 21.096 30.5ZM3.15398 2.5C2.74259 2.5 2.40909 2.80892 2.40909 3.19V19.56H10.8403C12.1461 19.56 13.2045 20.5405 13.2045 21.75V28.54H21.096C21.5074 28.54 21.8409 28.2311 21.8409 27.85V3.19C21.8409 2.80892 21.5074 2.5 21.096 2.5H3.15398ZM11.0455 27.2973V21.75C11.0455 21.6451 10.9536 21.56 10.8403 21.56H4.15499L11.0455 27.2973ZM6.37102 10.81C6.37102 10.2577 6.81874 9.81 7.37102 9.81H16.1665C16.7188 9.81 17.1665 10.2577 17.1665 10.81C17.1665 11.3623 16.7188 11.81 16.1665 11.81H7.37102C6.81874 11.81 6.37102 11.3623 6.37102 10.81ZM7.37102 5.5C6.81874 5.5 6.37102 5.94771 6.37102 6.5C6.37102 7.05228 6.81874 7.5 7.37102 7.5H9.68921C10.2415 7.5 10.6892 7.05228 10.6892 6.5C10.6892 5.94771 10.2415 5.5 9.6892 5.5H7.37102Z" fill="white"/>
</svg>
