<svg width="19" height="20" viewBox="0 0 19 20" fill="none" xmlns="http://www.w3.org/2000/svg">
<path fill-rule="evenodd" clip-rule="evenodd" d="M18.4009 14.8855L13.2036 6.64735C13.0881 6.44849 13.0304 6.22123 13.0304 5.99397V1.98852H13.2613C13.81 1.98852 14.2719 1.56241 14.2719 0.994261C14.2719 0.454519 13.81 0 13.2613 0H5.63865C5.09005 0 4.62807 0.454519 4.62807 0.994261C4.62807 1.534 5.09005 1.98852 5.63865 1.98852H5.86964V6.02238C5.86964 6.24964 5.81189 6.4769 5.6964 6.67575L0.499105 14.9139C-0.13612 15.9082 -0.164993 17.1297 0.412484 18.1524C0.989961 19.175 2.05829 19.8 3.24212 19.8H15.6579C16.8417 19.8 17.91 19.175 18.4875 18.1524C19.065 17.1013 19.0361 15.9082 18.4009 14.8855ZM11.0092 1.98852V6.02238C11.0092 6.61894 11.1824 7.18709 11.5 7.69842L12.5972 9.45968C12.0198 9.40287 11.4134 9.26083 10.8359 9.03357C9.50775 8.52224 8.17955 8.35179 6.9091 8.43702L7.37108 7.69842C7.68869 7.18709 7.86194 6.61894 7.86194 6.02238V1.98852H11.0092ZM15.629 17.8115C16.091 17.8115 16.4952 17.5842 16.7262 17.1865C16.9572 16.7888 16.9572 16.3059 16.6973 15.9366L13.8966 11.4766C13.81 11.4766 13.7305 11.4837 13.6511 11.4908C13.5717 11.4979 13.4923 11.505 13.4057 11.505C12.3374 11.505 11.2691 11.2778 10.1718 10.8801C8.52604 10.2551 6.9091 10.2267 5.46541 10.7948L2.20266 15.9366C1.9428 16.3059 1.9428 16.7888 2.11604 17.1865C2.34703 17.5842 2.75127 17.8115 3.21325 17.8115H15.629Z" fill="white"/>
</svg>
