<svg width="20" height="20" viewBox="0 0 20 20" fill="none" xmlns="http://www.w3.org/2000/svg">
<path d="M17.3813 2.61824L16.7113 3.28811L16.7115 3.28824L17.3813 2.61824ZM9.56658 2.61824L8.89667 1.94837V1.94837L9.56658 2.61824ZM17.3813 10.4333L16.7115 9.76333L16.7113 9.76345L17.3813 10.4333ZM13.9626 13.8522L13.2927 13.1823L12.6228 13.8522L13.2927 14.522L13.9626 13.8522ZM13.963 13.8526L14.6329 14.5225L15.3028 13.8526L14.6329 13.1827L13.963 13.8526ZM10.4342 17.3816L11.1039 18.0517L11.1041 18.0514L10.4342 17.3816ZM2.61875 17.3816L1.94896 18.0516L1.94908 18.0517L2.61875 17.3816ZM2.61875 9.56648L3.28853 10.2365L3.28866 10.2364L2.61875 9.56648ZM6.0378 6.14725L6.70771 6.81712L7.37756 6.14723L6.70769 5.47736L6.0378 6.14725ZM6.03778 6.14722L5.36787 5.47735L4.69801 6.14724L5.36789 6.81712L6.03778 6.14722ZM18.0512 1.94837C15.5236 -0.57928 11.4242 -0.57928 8.89667 1.94837L10.2365 3.28811C12.0241 1.50045 14.9238 1.50045 16.7113 3.28811L18.0512 1.94837ZM18.051 11.1033C20.5795 8.57567 20.5795 4.47589 18.051 1.94824L16.7115 3.28824C18.4997 5.0759 18.4997 7.97567 16.7115 9.76333L18.051 11.1033ZM14.6325 14.522L18.0512 11.1032L16.7113 9.76345L13.2927 13.1823L14.6325 14.522ZM14.6329 13.1827L14.6325 13.1823L13.2927 14.522L13.2931 14.5225L14.6329 13.1827ZM11.1041 18.0514L14.6329 14.5225L13.2931 13.1827L9.7643 16.7117L11.1041 18.0514ZM6.52648 19.9474C8.18237 19.9474 9.84015 19.3145 11.1039 18.0517L9.76455 16.7114C8.86994 17.6054 7.69995 18.0526 6.52648 18.0526V19.9474ZM1.94908 18.0517C3.21281 19.3145 4.87059 19.9474 6.52648 19.9474V18.0526C5.35301 18.0526 4.18302 17.6054 3.28841 16.7114L1.94908 18.0517ZM1.94896 8.89648C-0.579479 11.4241 -0.579479 15.5239 1.94896 18.0516L3.28853 16.7116C1.50031 14.9239 1.50031 12.0241 3.28853 10.2365L1.94896 8.89648ZM5.36789 5.47738L1.94884 8.89661L3.28866 10.2364L6.70771 6.81712L5.36789 5.47738ZM5.36789 6.81712L5.36791 6.81714L6.70769 5.47736L6.70767 5.47733L5.36789 6.81712ZM8.89667 1.94837L5.36787 5.47735L6.70768 6.8171L10.2365 3.28811L8.89667 1.94837Z" fill="white"/>
</svg>
