<svg width="13" height="16" viewBox="0 0 13 16" fill="none" xmlns="http://www.w3.org/2000/svg">
<path fill-rule="evenodd" clip-rule="evenodd" d="M6.62255 0.0147869C9.56643 0.220505 11.9513 2.59561 12.1749 5.53177C12.2867 6.97179 11.9141 8.31831 11.1688 9.403C10.3862 10.5625 8.15039 13.854 6.95793 15.5932C6.60392 16.1356 5.80274 16.1356 5.43009 15.5932C4.88635 14.7916 4.12565 13.6751 3.38473 12.5875C2.50077 11.29 1.64494 10.0338 1.21923 9.403C0.567101 8.44922 0.194458 7.28972 0.194458 6.03671C0.194458 2.55821 3.11971 -0.228334 6.62255 0.0147869ZM2.74706 6.01801C2.74706 7.92557 4.29353 9.47781 6.19401 9.47781C8.09449 9.47781 9.64096 7.92557 9.64096 6.01801C9.64096 4.11044 8.09449 2.55821 6.19401 2.55821C4.29353 2.55821 2.74706 4.11044 2.74706 6.01801Z" fill="#9B9B9B"/>
</svg>
