<svg width="16" height="15" viewBox="0 0 16 15" fill="none" xmlns="http://www.w3.org/2000/svg">
<path fill-rule="evenodd" clip-rule="evenodd" d="M8.63706 2.18948L8.63701 5.06189C8.63701 5.23525 8.56516 5.39046 8.45138 5.51543C8.33661 5.64142 8.16696 5.69585 8.00229 5.7029C7.84362 5.70996 7.66298 5.62631 7.55321 5.51545C7.43844 5.39955 7.36759 5.2272 7.36759 5.06191L7.36764 2.1895L6.47743 3.08853C6.35568 3.21149 6.197 3.26894 6.02834 3.276C5.85869 3.28407 5.70001 3.20042 5.57926 3.08855C5.4625 2.98071 5.39364 2.79224 5.39364 2.63501C5.39265 2.47073 5.4645 2.29738 5.57927 2.18147L7.55329 0.187886C7.66806 0.0619008 7.83772 0.00747341 8.00239 0.000415667C8.09628 -0.00376077 8.19787 0.0238267 8.28791 0.0700208C8.34717 0.0993576 8.40237 0.138433 8.45083 0.187221L8.45147 0.187871L10.4254 2.18139C10.5472 2.30435 10.6041 2.4646 10.611 2.63493C10.619 2.80626 10.5362 2.96651 10.4254 3.08847C10.3186 3.20639 10.132 3.27594 9.97632 3.27594C9.81365 3.27695 9.642 3.20439 9.52724 3.08848L8.63706 2.18948ZM13.8358 7.09936L12.9456 6.20036C12.8239 6.0774 12.767 5.91716 12.76 5.74683C12.752 5.57549 12.8348 5.41524 12.9456 5.29329C13.0524 5.17536 13.239 5.10582 13.3947 5.10582C13.5574 5.10481 13.729 5.17737 13.8438 5.29327L15.8178 7.28679C16.0124 7.48341 16.0508 7.78892 15.9344 8.02869C15.903 8.09127 15.8627 8.14833 15.8181 8.19354L15.5722 8.44181L13.8437 10.1875C13.722 10.3104 13.5633 10.3679 13.3946 10.3749C13.225 10.383 13.0663 10.2993 12.9455 10.1875C12.8288 10.0796 12.7599 9.89116 12.7599 9.73393C12.7589 9.56965 12.8308 9.3963 12.9456 9.28039L13.8358 8.38136L10.9915 8.38141C10.8199 8.38141 10.6662 8.30885 10.5425 8.19395C10.4177 8.07805 10.3638 7.90672 10.3568 7.74042C10.3499 7.58017 10.4327 7.39775 10.5425 7.28688C10.6572 7.17097 10.8279 7.09941 10.9916 7.09941L13.8358 7.09936ZM7.36766 9.93811L7.36762 12.8105L6.47844 11.9125C6.36367 11.7966 6.19202 11.7241 6.02935 11.7251C5.87367 11.7251 5.68705 11.7946 5.58026 11.9125C5.46949 12.0345 5.38665 12.1947 5.39463 12.3661C5.40162 12.5364 5.4585 12.6967 5.58025 12.8196L7.55421 14.8131C7.61002 14.8695 7.67481 14.9129 7.74447 14.9434C7.82731 14.9814 7.91791 15.0033 8.00229 14.9996C8.0275 14.9985 8.05282 14.9963 8.07805 14.9929C8.13548 14.9863 8.19211 14.9721 8.2461 14.9502C8.31026 14.9251 8.37011 14.8897 8.42137 14.8423C8.43198 14.833 8.44233 14.8233 8.45238 14.8131L10.4264 12.8195C10.5412 12.7036 10.613 12.5303 10.612 12.366C10.612 12.2088 10.5432 12.0203 10.4264 11.9125C10.3057 11.8006 10.147 11.7169 9.97733 11.725C9.80868 11.7321 9.65 11.7895 9.52824 11.9125L8.63704 12.8125L8.63708 9.93809C8.63709 9.7728 8.56623 9.60045 8.45147 9.48455C8.34169 9.37369 8.16106 9.29004 8.00239 9.2971C7.83772 9.30415 7.66806 9.35858 7.55329 9.48456C7.44052 9.61055 7.36867 9.76375 7.36766 9.93811ZM0.0492722 7.98695C0.0741736 8.05174 0.109216 8.11218 0.156111 8.16395C0.165333 8.17466 0.174973 8.18511 0.185029 8.19526L2.15899 10.1888C2.27375 10.3047 2.4454 10.3773 2.60807 10.3762C2.76375 10.3762 2.95038 10.3067 3.05716 10.1888C3.16794 10.0668 3.25077 9.90657 3.24279 9.73523C3.23581 9.5649 3.17893 9.40465 3.05718 9.28169L2.166 8.38169L5.01222 8.38164C5.17589 8.38164 5.34654 8.31008 5.46131 8.19417C5.57109 8.0833 5.65392 7.90088 5.64694 7.74063C5.63996 7.57433 5.58607 7.403 5.46132 7.28709C5.33658 7.17321 5.18489 7.10064 5.01224 7.09964L2.16802 7.09969L3.05723 6.20166C3.17199 6.08576 3.24385 5.91241 3.24286 5.74812C3.24286 5.5909 3.174 5.40243 3.05724 5.29459C2.93649 5.18272 2.77781 5.09907 2.60816 5.10713C2.4395 5.11419 2.28082 5.17164 2.15906 5.2946L0.186041 7.28718L0.185043 7.28819C0.129232 7.34455 0.086212 7.40999 0.0560196 7.48034C0.0183856 7.56401 -0.00330275 7.6555 0.000410974 7.74072C0.00147994 7.76618 0.00364801 7.79175 0.00700112 7.81723C0.0135234 7.87522 0.0276083 7.93242 0.0492722 7.98695Z" fill="black"/>
</svg>
